<svg xmlns="http://www.w3.org/2000/svg" viewBox="0 0 190 55"><defs><style>.cls-1{fill:#080808;}</style></defs><g id="Layer_1" data-name="Layer 1"><path class="cls-1" d="M29.22,15.12l-6.4,15.82H18.17l-.82,2H22L15.31,49.5H51.72L33.51,4.5ZM17,48.33,23.25,33h8l.82-2h-8l5.77-14.27L42.65,48.33Z"/><path class="cls-1" d="M70.69,23.27a4.57,4.57,0,0,0,1.48-3.6A4.09,4.09,0,0,0,71,16.82a4.48,4.48,0,0,0-2.82-1.47A3.73,3.73,0,0,0,70.54,14a4.27,4.27,0,0,0,.82-2.69,4.06,4.06,0,0,0-1.48-3.4,6.89,6.89,0,0,0-4.36-1.17H60.83V24.59h5.75A5.94,5.94,0,0,0,70.69,23.27ZM61.49,7.39h4.18q5,.06,5,3.86a3.42,3.42,0,0,1-1.24,2.92,6.08,6.08,0,0,1-3.68.94H61.49Zm0,8.38h5.42a5,5,0,0,1,3.35,1.13,3.56,3.56,0,0,1,1.25,2.79,3.9,3.9,0,0,1-1.29,3.11,5.27,5.27,0,0,1-3.57,1.13H61.49Z"/><polygon class="cls-1" points="85.59 23.93 75.38 23.93 75.38 15.73 84.34 15.73 84.34 15.07 75.38 15.07 75.38 7.39 85.59 7.39 85.59 6.73 74.72 6.73 74.72 24.59 85.59 24.59 85.59 23.93"/><path class="cls-1" d="M98,23.35a6.21,6.21,0,0,0,1.9-4.23h-.66a5.64,5.64,0,0,1-1.7,3.79,5.89,5.89,0,0,1-4,1.26,5.27,5.27,0,0,1-3.05-.91,5.86,5.86,0,0,1-2-2.53A9.31,9.31,0,0,1,87.74,17V14.37a8.06,8.06,0,0,1,1.6-5.26,5.17,5.17,0,0,1,4.2-2,5.77,5.77,0,0,1,4,1.29,5.65,5.65,0,0,1,1.72,3.74h.66A6.19,6.19,0,0,0,98,8a6.48,6.48,0,0,0-4.46-1.47,6,6,0,0,0-3.39,1,6.35,6.35,0,0,0-2.27,2.78,9.84,9.84,0,0,0-.8,4.08v2.76a9.79,9.79,0,0,0,.82,4.05,6.26,6.26,0,0,0,2.28,2.74,6,6,0,0,0,3.36,1A6.43,6.43,0,0,0,98,23.35Z"/><path class="cls-1" d="M112.23,7.46a6.87,6.87,0,0,0-7.07,0,6.29,6.29,0,0,0-2.37,2.76,9.72,9.72,0,0,0-.83,4.1V16.9a8.54,8.54,0,0,0,1.87,5.79,6.15,6.15,0,0,0,4.88,2.14,6.43,6.43,0,0,0,3.53-1,6.36,6.36,0,0,0,2.37-2.76,9.7,9.7,0,0,0,.82-4.11V14.32a9.55,9.55,0,0,0-.83-4.09A6.39,6.39,0,0,0,112.23,7.46Zm2.54,9.44a8,8,0,0,1-1.63,5.32,5.47,5.47,0,0,1-4.43,2,5.57,5.57,0,0,1-5.33-3.4,9.17,9.17,0,0,1-.74-3.78V14.38a8,8,0,0,1,1.64-5.29,6,6,0,0,1,8.85,0,7.86,7.86,0,0,1,1.64,5.2Z"/><polygon class="cls-1" points="118.92 7.79 126.3 24.59 126.82 24.59 134.23 7.71 134.23 24.59 134.9 24.59 134.9 6.73 133.93 6.73 126.55 23.62 119.21 6.73 118.26 6.73 118.26 24.59 118.92 24.59 118.92 7.79"/><rect class="cls-1" x="139.04" y="6.73" width="0.66" height="17.86"/><polygon class="cls-1" points="144.51 7.86 156.04 24.59 156.71 24.59 156.71 6.73 156.04 6.73 156.04 23.42 144.51 6.73 143.84 6.73 143.84 24.59 144.51 24.59 144.51 7.86"/><path class="cls-1" d="M166.82,16.49v.66h5.46v5.21a4.41,4.41,0,0,1-2.11,1.28,10.18,10.18,0,0,1-3.32.53,5.78,5.78,0,0,1-5.44-3.45,8.6,8.6,0,0,1-.78-3.74V14.14a7.51,7.51,0,0,1,1.65-5.07,5.5,5.5,0,0,1,4.36-1.93,6.05,6.05,0,0,1,3.84,1.15,5,5,0,0,1,1.78,3.27h.66A5.37,5.37,0,0,0,171,7.84a6.68,6.68,0,0,0-4.33-1.36,6.28,6.28,0,0,0-5.83,3.65,8.93,8.93,0,0,0-.85,3.93v3.07a9.09,9.09,0,0,0,.91,4,6.47,6.47,0,0,0,2.43,2.73,6.55,6.55,0,0,0,3.55,1,10.79,10.79,0,0,0,3.72-.61,4.84,4.84,0,0,0,2.37-1.55V16.49Z"/><path class="cls-1" d="M66.69,29.31,60,47.17h.72l2-5.34h8.74l2,5.34h.73L67.5,29.31ZM63,41.17,67.1,30.1l4.12,11.07Z"/><path class="cls-1" d="M77.24,31.69a5.17,5.17,0,0,1,4.2-2,5.75,5.75,0,0,1,4,1.29,5.65,5.65,0,0,1,1.72,3.74h.66a6.17,6.17,0,0,0-1.91-4.22,6.48,6.48,0,0,0-4.46-1.47,6,6,0,0,0-3.39,1,6.35,6.35,0,0,0-2.27,2.78A10,10,0,0,0,75,36.9v2.76a9.79,9.79,0,0,0,.82,4.05,6.26,6.26,0,0,0,2.28,2.74,6,6,0,0,0,3.36,1,6.41,6.41,0,0,0,4.47-1.48,6.17,6.17,0,0,0,1.9-4.23h-.66a5.59,5.59,0,0,1-1.7,3.79,5.89,5.89,0,0,1-4,1.26,5.22,5.22,0,0,1-3-.91,5.81,5.81,0,0,1-2.05-2.53,9.31,9.31,0,0,1-.71-3.74V37A8.11,8.11,0,0,1,77.24,31.69Z"/><polygon class="cls-1" points="90.69 47.17 101.56 47.17 101.56 46.5 91.35 46.5 91.35 38.31 100.31 38.31 100.31 37.65 91.35 37.65 91.35 29.97 101.56 29.97 101.56 29.31 90.69 29.31 90.69 47.17"/><path class="cls-1" d="M113.39,39.48a12.63,12.63,0,0,0-4.26-1.75A11.91,11.91,0,0,1,105,36a3.2,3.2,0,0,1,.19-5.22A6.36,6.36,0,0,1,109,29.72,5.57,5.57,0,0,1,112.78,31a4.23,4.23,0,0,1,1.47,3.31h.66a5,5,0,0,0-2.86-4.61,6.91,6.91,0,0,0-3.09-.67,7,7,0,0,0-4.28,1.21A3.74,3.74,0,0,0,103,33.43a3.81,3.81,0,0,0,.54,2.08A4.5,4.5,0,0,0,105.27,37a16,16,0,0,0,3.48,1.29,18.1,18.1,0,0,1,3.47,1.25A4.6,4.6,0,0,1,113.9,41a3.45,3.45,0,0,1,.53,1.94,3.3,3.3,0,0,1-1.52,2.79,6.57,6.57,0,0,1-3.86,1.07,7.07,7.07,0,0,1-4.28-1.21,4,4,0,0,1-1.65-3.41h-.66a5,5,0,0,0,.78,2.8,4.92,4.92,0,0,0,2.32,1.84,9,9,0,0,0,3.49.64,8.48,8.48,0,0,0,3.14-.56,4.91,4.91,0,0,0,2.16-1.6,4.16,4.16,0,0,0-1-5.77Z"/><path class="cls-1" d="M123.74,34.31h3.52v-.94h-4V31.82h3.3v-.94h-3.3v-1.6h-1v1.6H119v.94h3.22v1.55h-4v.94h3.45a9.9,9.9,0,0,1-3.75,3,5.81,5.81,0,0,1,.7.8,11.16,11.16,0,0,0,3.55-3v3.51h1V35.07a10.92,10.92,0,0,0,3.56,3.06,5.43,5.43,0,0,1,.7-.81A10,10,0,0,1,123.74,34.31Z"/><path class="cls-1" d="M131.36,31.72a5.13,5.13,0,0,1-1.83,3,4.5,4.5,0,0,1,.74.62,5.25,5.25,0,0,0,1.23-1.51,9.23,9.23,0,0,1,.84.87l.64-.67a11.14,11.14,0,0,0-1.08-1,9.85,9.85,0,0,0,.38-1.16Z"/><path class="cls-1" d="M134.75,34.39a4.63,4.63,0,0,1,.77.48,4.58,4.58,0,0,0,.79-1,16.48,16.48,0,0,1,1.47,1.33l.67-.66A20.34,20.34,0,0,0,136.69,33a7,7,0,0,0,.36-1.15l-.92-.16a4.7,4.7,0,0,1-1.4,2.64,4.73,4.73,0,0,1-.28-.44V31.55h3.92v-.92h-3.92V29.28h-1v1.35h-3.8v.92h3.8V34a9.39,9.39,0,0,1-4.19,3.44,4.25,4.25,0,0,1,.67.8,10.17,10.17,0,0,0,3.52-2.79v3.21h1V35.39A9.73,9.73,0,0,0,138,38.22a3.61,3.61,0,0,1,.71-.85A9,9,0,0,1,134.75,34.39Z"/><path class="cls-1" d="M146,33.09h3.72v-1h-4.11a26.28,26.28,0,0,0,.14-2.82h-1a26.13,26.13,0,0,1-.12,2.82h-3.79v1h3.62a6.36,6.36,0,0,1-3.83,4.74,3.18,3.18,0,0,1,.73.79,7,7,0,0,0,3.93-4.7,7.8,7.8,0,0,0,3.94,4.7,3.77,3.77,0,0,1,.7-.88A7.18,7.18,0,0,1,146,33.09Z"/><path class="cls-1" d="M156.82,30.83c.06-.6.07-1.13.08-1.51h-1.09c0,1.63.09,6.38-4.08,8.54a3,3,0,0,1,.78.75,8.1,8.1,0,0,0,3.9-5.25,8,8,0,0,0,4,5.2,2.88,2.88,0,0,1,.7-.8C157.59,36.18,157,32.11,156.82,30.83Z"/><path class="cls-1" d="M168.75,29.45l-.85-.17a8.67,8.67,0,0,1-1.75,3.86,7.45,7.45,0,0,1,.74.54A8,8,0,0,0,168,31.8h.72a8.29,8.29,0,0,1-2.35,4,3.46,3.46,0,0,1,.73.54,9.8,9.8,0,0,0,2.42-4.54h.68c-.51,2.47-1.58,4.91-3.22,6.08a4.33,4.33,0,0,1,.78.56c1.65-1.33,2.74-4,3.26-6.64h.29c-.18,3.88-.4,5.32-.69,5.66a.41.41,0,0,1-.37.18c-.19,0-.57,0-1,0a2.35,2.35,0,0,1,.27.93,6,6,0,0,0,1.15,0,1,1,0,0,0,.74-.45c.4-.5.59-2.11.82-6.69,0-.12,0-.44,0-.44h-3.9A13.38,13.38,0,0,0,168.75,29.45Z"/><path class="cls-1" d="M166.7,33.77l-1.07.31V32.2h1v-.9h-1v-2h-.87v2h-.66c.07-.43.13-.86.18-1.3l-.81-.13a11.65,11.65,0,0,1-.64,3.32,4.73,4.73,0,0,1,.69.43,10.22,10.22,0,0,0,.42-1.42h.82v2.14l-1.85.5.24.91,1.61-.49v3.37h.87V35l1.19-.37Z"/></g></svg>