<svg xmlns="http://www.w3.org/2000/svg" viewBox="0 0 190 55"><g id="橫式"><path d="M28.42,48.36h5.29a2.71,2.71,0,0,1,3.83-2.11.51.51,0,0,0,.4,0,3.28,3.28,0,0,1,1.46-.42.39.39,0,0,0,.31-.2,2.23,2.23,0,0,1,3.13-1.91h0c.89,0,.68-.27,1-1.47L44.2,40a5,5,0,0,0-.15-1.23l-1.69-3.29a1.57,1.57,0,0,0-.53.59,3.56,3.56,0,0,0-.38,1.46,8.07,8.07,0,0,0,.08,1.63l-.39,0a.2.2,0,0,1-.25-.14l-.21-.48-.06-.15c-.14-.48-.3-1-.4-1.44a3.94,3.94,0,0,1,0-1.87,2.61,2.61,0,0,1,1-1.47c.19-.14.39-.25.59-.37a.13.13,0,0,0,.08-.16c-.09-.69-.18-1.38-.26-2.06,0-.18,0-.35,0-.52a1.47,1.47,0,0,1,0-.21h0c0-.26,0-.51,0-.77A6.86,6.86,0,0,1,42,27.81,12,12,0,0,1,44,24.36a3.11,3.11,0,0,1,.31-.32l.22-.25c.21.24.41.45.59.67a12.34,12.34,0,0,1,1.3,1.85,8.53,8.53,0,0,1,.95,2.39,6.65,6.65,0,0,1,.16,1.62h0a.12.12,0,0,1,0,.11c-.06.62-.12,1.25-.19,1.87,0,.28-.08.56-.13.84,0,.09.05.11.1.14a3.17,3.17,0,0,1,.9.63A2.87,2.87,0,0,1,49,35.49a5.54,5.54,0,0,1-.34,2.58c-.12.34-.27.67-.41,1,0,.09-.09.14-.19.13s-.27,0-.42,0c0-.18,0-.34,0-.51a5.23,5.23,0,0,0-.21-2.26,1.77,1.77,0,0,0-.68-.91L45,38.76A4.64,4.64,0,0,0,44.84,40l.35,2.23c.18,1,.31,1.61,1.2,1.61l.13-.06a2.23,2.23,0,0,1,3.1,1.56l.1.47a3.44,3.44,0,0,1,1.53.45.3.3,0,0,0,.33,0c1.84-1.21,3.88.88,3.4,2.08a0,0,0,0,0,0,0H60.7L44.56,4.4Z"/><path d="M45.88,29.25a1.34,1.34,0,1,0-2.68,0,1.33,1.33,0,0,0,1.34,1.33A1.35,1.35,0,0,0,45.88,29.25Z"/><path d="M119.6,4.6h9.66V48.65H119.6v-3a10.08,10.08,0,0,1-8.33,3.87,13.31,13.31,0,0,1-5.47-1.11,13.66,13.66,0,0,1-4.35-3.08,14.07,14.07,0,0,1-2.89-4.62,15.64,15.64,0,0,1-1-5.73,15.81,15.81,0,0,1,1-5.55,14.07,14.07,0,0,1,2.79-4.59,13.22,13.22,0,0,1,9.87-4.24,11.09,11.09,0,0,1,8.44,3.55ZM107.5,35a6.32,6.32,0,0,0,.48,2.47,6.41,6.41,0,0,0,1.3,2,5.94,5.94,0,0,0,2,1.32,6.29,6.29,0,0,0,2.47.48,6.14,6.14,0,0,0,2.41-.48,6,6,0,0,0,2-1.32,6.88,6.88,0,0,0,1.32-2,5.67,5.67,0,0,0,.51-2.39,5.86,5.86,0,0,0-.51-2.41,6.84,6.84,0,0,0-1.32-2,5.86,5.86,0,0,0-2-1.33,6.44,6.44,0,0,0-4.83,0,5.82,5.82,0,0,0-2,1.33A7,7,0,0,0,108,32.6,5.61,5.61,0,0,0,107.5,35Z"/><path d="M99.67,45.93a14.75,14.75,0,0,1-3-4.85,17.06,17.06,0,0,1-.06-11.84A15,15,0,0,1,98,26.46L91.05,8.34H79.7l-15.23,40H75.56l2.39-7H92.8l2.39,7h7.52A14.5,14.5,0,0,1,99.67,45.93Zm-19-12.43,4.67-13.32L90.05,33.5Z"/><path d="M161.58,48.36h-30l9.23-9.58q3.66-3.8,5.73-6.44a34.87,34.87,0,0,0,3.08-4.47,11.38,11.38,0,0,0,1.26-3,9,9,0,0,0,.25-1.93,5,5,0,0,0-.27-1.62A4,4,0,0,0,147,18.59a3.85,3.85,0,0,0-3.08,1.29,4.7,4.7,0,0,0-1.11,3.2,11.84,11.84,0,0,0,.15,1.58H132.36a16,16,0,0,1,1.06-5.92,13.47,13.47,0,0,1,3-4.59,13.12,13.12,0,0,1,4.57-3,15.75,15.75,0,0,1,5.8-1,16.3,16.3,0,0,1,5.75,1,13.78,13.78,0,0,1,4.56,2.76,12.8,12.8,0,0,1,4.1,9.53,12.39,12.39,0,0,1-1.31,5.65,19.8,19.8,0,0,1-4.17,5.31l-6.17,5.77h12Z"/></g></svg>