<svg xmlns="http://www.w3.org/2000/svg" viewBox="0 0 190 55"><defs><style>.cls-1{fill:#009ee2;}</style></defs><g id="圖層_1" data-name="圖層 1"><path class="cls-1" d="M34.36,36.85a12.41,12.41,0,0,1-12,2A12.4,12.4,0,1,1,34.36,17.59c.24-.5.5-1,.78-1.48a21.62,21.62,0,0,1,2.37-3.34A18.13,18.13,0,1,0,20.36,44.25a18.05,18.05,0,0,0,17.14-2.6,22,22,0,0,1-2.36-3.33Q34.72,37.6,34.36,36.85Z"/><path class="cls-1" d="M100.06,24.07A18.12,18.12,0,0,0,71.25,12.78a21.34,21.34,0,0,1,2.37,3.33c.28.49.54,1,.78,1.48a12.4,12.4,0,0,1,20,7.47,13,13,0,0,1,.19,2.16,2.7,2.7,0,0,0,0,.49,2.41,2.41,0,0,0-.08.48A12.69,12.69,0,0,1,93,33.42,12.41,12.41,0,0,1,74.4,36.85q-.36.75-.78,1.47a22,22,0,0,1-2.36,3.33,18.13,18.13,0,0,0,29-13,2.8,2.8,0,0,0,0-.71,2.82,2.82,0,0,0,.09-.71A18.52,18.52,0,0,0,100.06,24.07Z"/><path class="cls-1" d="M109.94,32.62V9.42h-5.73v23.2A12.4,12.4,0,0,0,116.6,45h2.87V39.29H116.6A6.67,6.67,0,0,1,109.94,32.62Z"/><path class="cls-1" d="M71.43,21.08a16.49,16.49,0,0,0-1.35-2.93,17.25,17.25,0,0,0-1.79-2.53,18.09,18.09,0,0,0-27.82,0,17.31,17.31,0,0,0-3.14,5.48,18.15,18.15,0,0,0,0,12.25,17.68,17.68,0,0,0,1.35,2.94,17.34,17.34,0,0,0,1.79,2.54,18.1,18.1,0,0,0,27.82,0,17.34,17.34,0,0,0,1.79-2.54,16.49,16.49,0,0,0,1.35-2.93A18.08,18.08,0,0,0,71.43,21.08ZM65.12,33.42a12.41,12.41,0,0,1-21.48,0l0-.07a12.45,12.45,0,0,1,0-12.27l0-.06a12.4,12.4,0,0,1,21.48,0,.21.21,0,0,1,0,.07,12.38,12.38,0,0,1,0,12.26Z"/><path class="cls-1" d="M179.55,36.05l-2.4,1.56A12.4,12.4,0,1,1,176,16.17l2.56,1.3,2.6-5.1-2.56-1.3a18.12,18.12,0,1,0-10.43,34.14,17.92,17.92,0,0,0,2.2.13,18.2,18.2,0,0,0,9.88-2.92l2.4-1.56Z"/><path class="cls-1" d="M148.59,20.17A9.89,9.89,0,0,0,138.4,10h-9.06v5.72h9.06a4.2,4.2,0,0,1,4.47,4.46,4.47,4.47,0,0,1-4.47,4.47h-6v5.72h6a4.47,4.47,0,0,1,4.47,4.47,4.2,4.2,0,0,1-4.47,4.46h-9.06V45h9.06a9.89,9.89,0,0,0,10.19-10.18,10.13,10.13,0,0,0-3.1-7.33A10.18,10.18,0,0,0,148.59,20.17Z"/></g></svg>