<svg xmlns="http://www.w3.org/2000/svg" viewBox="0 0 190 55"><defs><style>.cls-1{fill:#2c2623;}</style></defs><g id="橫式"><path class="cls-1" d="M65.29,32.43A3.86,3.86,0,0,1,67.6,33a2,2,0,0,1,.84,1.66c0,.7-.18,1.14-.53,1.31a3.1,3.1,0,0,1-1.35.25h-4a.62.62,0,0,0-.47.16,1.33,1.33,0,0,0-.14.75,4.54,4.54,0,0,0,1.05,3,3.25,3.25,0,0,0,2.58,1.27,2.81,2.81,0,0,0,2.36-1.08c.11-.11.2-.17.26-.17s.22.21.1.64a2.78,2.78,0,0,1-1.21,1.35,4.53,4.53,0,0,1-2.65.72,3.54,3.54,0,0,1-2.8-1.46,5.65,5.65,0,0,1-1.2-3.7A5.36,5.36,0,0,1,61.83,34,4.52,4.52,0,0,1,65.29,32.43Zm1.61,2.26a1.26,1.26,0,0,0-.61-1.09,2.63,2.63,0,0,0-1.48-.41,2.4,2.4,0,0,0-1.63.69,1.87,1.87,0,0,0-.77,1.26c0,.24.15.37.46.37h2a9.23,9.23,0,0,0,1.79-.13Q66.9,35.36,66.9,34.69Z"/><path class="cls-1" d="M71.56,32.77l1.84-.12c.32,0,.48.08.48.23s-.18.3-.56.43-.49.43-.49,1a2.08,2.08,0,0,0,.1.66l1.81,4.86c.06.18.11.27.14.27S75,40,75,39.85l1.76-4.51a2.54,2.54,0,0,0,.17-.88c0-.65-.2-1-.61-1.15s-.56-.27-.56-.43.16-.23.49-.23l1.78.12a5.89,5.89,0,0,0,.88-.06,4.76,4.76,0,0,1,.72-.06c.22,0,.33.08.33.23s-.16.29-.48.39a2.28,2.28,0,0,0-.91.63A3.25,3.25,0,0,0,77.91,35L76,39.54,75.1,42c-.35.73-.57,1.1-.66,1.1s-.27-.32-.48-1l-3-7.61a1.9,1.9,0,0,0-1.13-1.2c-.37-.13-.56-.27-.56-.43s.17-.23.49-.23Z"/><path class="cls-1" d="M85.21,32.43a3.84,3.84,0,0,1,2.31.61,2,2,0,0,1,.84,1.66c0,.7-.17,1.14-.52,1.31a3.12,3.12,0,0,1-1.36.25h-4a.63.63,0,0,0-.48.16,1.35,1.35,0,0,0-.13.75,4.54,4.54,0,0,0,1,3,3.24,3.24,0,0,0,2.57,1.27,2.8,2.8,0,0,0,2.36-1.08c.11-.11.2-.17.27-.17s.21.21.1.64A2.84,2.84,0,0,1,87,42.16a4.55,4.55,0,0,1-2.65.72,3.56,3.56,0,0,1-2.81-1.46,5.65,5.65,0,0,1-1.2-3.7A5.32,5.32,0,0,1,81.76,34,4.5,4.5,0,0,1,85.21,32.43Zm1.62,2.26a1.27,1.27,0,0,0-.62-1.09,2.57,2.57,0,0,0-1.47-.41,2.42,2.42,0,0,0-1.64.69,1.91,1.91,0,0,0-.77,1.26c0,.24.16.37.47.37h2a9.11,9.11,0,0,0,1.78-.13C86.74,35.37,86.83,35.14,86.83,34.69Z"/><path class="cls-1" d="M92.27,42.49l-2,.12c-.32,0-.49-.07-.49-.23s.15-.28.44-.38a6.16,6.16,0,0,0,.59-.21.74.74,0,0,0,.3-.25.76.76,0,0,0,.16-.51V35.78c0-1-.33-1.62-1-1.76-.13,0-.19-.14-.19-.31s.05-.27.17-.3a4.24,4.24,0,0,0,1.37-.49l1.09-.7a1.34,1.34,0,0,0,.27-.17h.06s.08.06.11.17c0,.44,0,.86,0,1.27s0,.61,0,.61.07,0,.13-.12a4.77,4.77,0,0,1,.44-.49,3.45,3.45,0,0,1,2.25-1,1.46,1.46,0,0,1,.84.22.68.68,0,0,1,.33.59,1.4,1.4,0,0,1-.31.8c-.2.3-.39.44-.57.44a2.12,2.12,0,0,1-.78-.22,2.39,2.39,0,0,0-.76-.22,1.73,1.73,0,0,0-1.21.47,2.09,2.09,0,0,0-.5,1.58V40.9q0,.66,1.32,1.05c.38.13.56.28.56.43s-.16.23-.49.23Z"/><path class="cls-1" d="M106.14,32.77l1.44-.12c.33,0,.49.08.49.23s-.16.29-.46.39a2.13,2.13,0,0,0-.88.63,3.58,3.58,0,0,0-.66,1.05l-3.32,7.91-.41,1-.94,2.28c-.37.91-.71,1.7-1,2.38a1.72,1.72,0,0,1-2.44.77.74.74,0,0,1-.39-.64c0-.49.22-.73.66-.73l1,.14a.55.55,0,0,0,.47-.26,32.52,32.52,0,0,0,2.22-4.84,2,2,0,0,0,.07-.61,2.1,2.1,0,0,0-.09-.66L99,34.51a1.83,1.83,0,0,0-1.09-1.2c-.38-.13-.57-.27-.57-.43s.17-.23.49-.23l1.78.12,1.86-.12c.33,0,.49.09.49.27s-.24.41-.71.54-.49.35-.49.78a2.1,2.1,0,0,0,.2.68l1.93,4.79q.19.47.36,0l1.64-4.34a2.57,2.57,0,0,0,.19-1,.9.9,0,0,0-.59-.86c-.4-.17-.6-.34-.6-.52s.16-.27.49-.27Z"/><path class="cls-1" d="M115.76,42.49l-2,.12c-.32,0-.49-.07-.49-.23s.23-.3.69-.45.72-.3.8-.45a1,1,0,0,0,.13-.45V28.72c0-1-.38-1.62-1.13-1.78-.13,0-.19-.14-.19-.31s0-.27.17-.3c.41-.1,1.35-.43,2.83-1h0l0,0c.1,0,.15.05.15.17s0,.19-.05.44a25.06,25.06,0,0,0-.12,2.88V41a.63.63,0,0,0,.29.63,6.74,6.74,0,0,0,.82.32c.33.11.5.25.5.4s-.17.23-.49.23Z"/><path class="cls-1" d="M121.77,42.49l-2,.12c-.33,0-.49-.07-.49-.23s.23-.3.68-.45.73-.3.81-.45a1,1,0,0,0,.12-.45v-5.3c0-1-.38-1.62-1.14-1.78-.14,0-.2-.14-.2-.31s.06-.27.17-.31a7.83,7.83,0,0,0,2.49-1.14,2.06,2.06,0,0,1,.44-.25c.11,0,.17,0,.17.12-.14,1.5-.22,2.6-.22,3.3V41a.65.65,0,0,0,.29.63,8.36,8.36,0,0,0,.82.32c.34.11.5.25.5.4s-.16.23-.48.23Zm-1-12.84a1.22,1.22,0,0,1,.88-2.1,1.2,1.2,0,0,1,.88.34,1.31,1.31,0,0,1,.36.9,1.27,1.27,0,0,1-.36.86,1.26,1.26,0,0,1-.88.36A1.24,1.24,0,0,1,120.72,29.65Z"/><path class="cls-1" d="M129.31,42.88a2.43,2.43,0,0,1-1.87-.72,3.14,3.14,0,0,1-.67-2.18V34.31a.29.29,0,0,0-.18-.29,2.37,2.37,0,0,0-.74-.07s-.11-.07-.19-.19a.66.66,0,0,1-.11-.29.2.2,0,0,1,.12-.18,3.08,3.08,0,0,0,1.15-.71,8.5,8.5,0,0,0,1-1c.25-.31.4-.47.44-.47.23,0,.35.08.35.25l-.05,1.07c0,.23.19.34.58.34h2.79c.16,0,.24.2.24.59s-.08.59-.24.59h-2.42a2.19,2.19,0,0,0-.82.09c-.1.07-.16.26-.16.59v4.61A2.66,2.66,0,0,0,129,41a1.47,1.47,0,0,0,1.14.53,3,3,0,0,0,1.84-.46.11.11,0,0,1,.17,0,.5.5,0,0,1,.07.27q0,.16-.39.51a4.28,4.28,0,0,1-1.09.68A3.29,3.29,0,0,1,129.31,42.88Z"/><path class="cls-1" d="M137,42.88a2.43,2.43,0,0,1-1.87-.72,3.09,3.09,0,0,1-.67-2.18V34.31a.29.29,0,0,0-.18-.29,2.41,2.41,0,0,0-.75-.07s-.11-.07-.18-.19a.66.66,0,0,1-.11-.29.21.21,0,0,1,.12-.18,3.08,3.08,0,0,0,1.15-.71,8.5,8.5,0,0,0,.95-1c.25-.31.39-.47.44-.47.23,0,.34.08.34.25l-.05,1.07c0,.23.2.34.59.34h2.78c.17,0,.25.2.25.59s-.08.59-.25.59h-2.41a2.15,2.15,0,0,0-.82.09c-.11.07-.16.26-.16.59v4.61a2.67,2.67,0,0,0,.46,1.77,1.46,1.46,0,0,0,1.15.53,3,3,0,0,0,1.83-.46.1.1,0,0,1,.17,0,.5.5,0,0,1,.08.27q0,.16-.39.51a4.46,4.46,0,0,1-1.09.68A3.29,3.29,0,0,1,137,42.88Z"/><path class="cls-1" d="M143,42.49l-2,.12c-.32,0-.48-.07-.48-.23s.22-.3.68-.45a1.52,1.52,0,0,0,.81-.45,1,1,0,0,0,.12-.45V28.72c0-1-.38-1.62-1.13-1.78-.13,0-.19-.14-.19-.31s.06-.27.17-.3c.41-.1,1.35-.43,2.83-1h0l0,0c.1,0,.15.05.15.17s0,.19-.05.44a25.06,25.06,0,0,0-.12,2.88V41a.63.63,0,0,0,.29.63,6.74,6.74,0,0,0,.82.32c.33.11.5.25.5.4s-.16.23-.49.23Z"/><path class="cls-1" d="M151.51,32.43a3.91,3.91,0,0,1,2.31.61,2,2,0,0,1,.84,1.66c0,.7-.18,1.14-.53,1.31a3.09,3.09,0,0,1-1.35.26h-4a.62.62,0,0,0-.47.15,1.33,1.33,0,0,0-.14.75,4.54,4.54,0,0,0,1.05,3,3.25,3.25,0,0,0,2.58,1.27,2.81,2.81,0,0,0,2.36-1.08c.11-.11.2-.17.26-.17s.22.21.1.64a2.73,2.73,0,0,1-1.21,1.35,4.53,4.53,0,0,1-2.65.72,3.54,3.54,0,0,1-2.8-1.46,5.65,5.65,0,0,1-1.2-3.7,5.37,5.37,0,0,1,1.4-3.76A4.52,4.52,0,0,1,151.51,32.43Zm1.61,2.26a1.26,1.26,0,0,0-.61-1.09,2.63,2.63,0,0,0-1.48-.41,2.41,2.41,0,0,0-1.63.69,1.87,1.87,0,0,0-.77,1.26c0,.25.15.37.46.37h2a10.28,10.28,0,0,0,1.79-.12C153,35.37,153.12,35.14,153.12,34.69Z"/><path class="cls-1" d="M168.72,42.91l.13-1.61v-.15a4.11,4.11,0,0,1-1.27,1.21,3.55,3.55,0,0,1-1.93.52,4,4,0,0,1-3.26-1.51,5.45,5.45,0,0,1-1.26-3.6,5.28,5.28,0,0,1,1.51-3.71,5.17,5.17,0,0,1,4-1.63,4,4,0,0,1,1.14.19,1.69,1.69,0,0,1,.79.36q.15.18.24.18c.05,0,.08-.19.08-.58V28.72a2.1,2.1,0,0,0-.28-1.28,1.62,1.62,0,0,0-1-.5c-.14,0-.2-.14-.2-.32s.06-.28.17-.29a14,14,0,0,0,1.91-.6,6.57,6.57,0,0,1,1.08-.38c.09,0,.14,0,.15.11a4.36,4.36,0,0,1,0,.48,26.93,26.93,0,0,0-.15,2.88v11c0,1,.17,1.58.51,1.58a6.3,6.3,0,0,0,1.13-.07c.24,0,.36.05.36.29s-.11.37-.34.37a8.29,8.29,0,0,0-2.21.57,5.3,5.3,0,0,1-1.12.41C168.78,43,168.72,43,168.72,42.91Zm-2.85-9.62a2.85,2.85,0,0,0-1.81.78,3.06,3.06,0,0,0-.81,1.27,6,6,0,0,0-.31,2.07,5.37,5.37,0,0,0,.4,2.16,3.22,3.22,0,0,0,1,1.38,3.73,3.73,0,0,0,2.18.83,2.33,2.33,0,0,0,1.68-.63,2.06,2.06,0,0,0,.66-1.54V36.32a3.11,3.11,0,0,0-.83-2.08A2.72,2.72,0,0,0,165.87,33.29Z"/><path class="cls-1" d="M53,40.23v-.18c0-.07,0-.13,0-.19s-.05-.12-.06-.18.06-.15,0-.21-.12-.1-.14-.15-.1-.1-.13-.15,0-.16,0-.21a1,1,0,0,0-.08-.18c0-.05,0-.14-.06-.19s-.14-.05-.18-.1,0-.14-.09-.18-.18,0-.23,0-.12,0-.18-.07-.08-.1-.13-.13-.08-.12-.14-.15-.15,0-.21,0l-.17,0c-.06,0-.09-.17-.15-.19s-.14,0-.2,0l-.19,0c-.07,0-.13-.08-.19-.08s-.13.16-.19.16-.13,0-.19,0-.12.08-.18.09l-.18,0-.18,0a1.23,1.23,0,0,0-.19,0c-.06,0-.13,0-.19,0s-.09.09-.15.12-.16,0-.21,0-.1.09-.15.13a.57.57,0,0,0-.15.12c-.05,0-.08.1-.13.15a1,1,0,0,0-.12.15s-.12.07-.15.12,0,.17,0,.23-.09.09-.12.15a1.34,1.34,0,0,0,0,.2,1.21,1.21,0,0,0,0,.18c0,.06-.1.11-.11.17s-.07.12-.07.19.12.13.11.2v.18c0,.07-.06.13-.05.19a1.5,1.5,0,0,0,0,.2,1.34,1.34,0,0,0,0,.2c0,.06.11.11.13.17s.11.1.13.16l.06.18c0,.05,0,.12.05.18s.08.09.12.15,0,.11.08.16l.11.16s0,.13.08.18.14,0,.18.08,0,.18.08.21.13,0,.18.08l.17.09a1.29,1.29,0,0,0,.19,0l.19,0c.06,0,.11.06.17.08s.11.11.18.11a1.05,1.05,0,0,0,.19,0,1.5,1.5,0,0,0,.2,0l.19,0c.06,0,.11-.14.17-.15s.13,0,.19,0,.14.06.2,0l.19,0,.17-.09.18-.08c.05,0,.1-.09.15-.12l.15-.12.15-.12s.15,0,.2-.06,0-.15.07-.2.14-.06.17-.11,0-.14.06-.19.12-.08.15-.13,0-.16,0-.22.15-.07.18-.13,0-.14,0-.2,0-.12.05-.18,0-.13,0-.19.06-.12.07-.18S53,40.3,53,40.23Z"/><path class="cls-1" d="M40.13,42.72c0-.06.08-.15.07-.21s-.09-.11-.1-.18-.12-.11-.13-.17.12-.15.11-.22-.13-.11-.14-.17,0-.14,0-.2,0-.14,0-.2,0-.13,0-.19-.11-.13-.11-.19,0-.13,0-.2,0-.13,0-.19.08-.13.08-.2-.05-.09-.05-.19S40,40.12,40,40s-.12-.09-.12-.19,0-.09,0-.19,0-.09,0-.19,0-.09,0-.19,0-.1,0-.19,0-.1,0-.19,0-.1,0-.19.06-.1.06-.19-.08-.1-.08-.19.18-.1.18-.2,0-.09,0-.19,0-.09,0-.19-.16-.09-.16-.19.16-.09.16-.19-.08-.09-.08-.19,0-.09,0-.19,0-.09,0-.19,0-.09,0-.19,0-.09,0-.19-.06-.09-.06-.19,0-.09,0-.19.1-.09.1-.19-.13-.09-.13-.19.1-.09.1-.19-.13-.09-.13-.19.08-.09.08-.19-.08-.09-.08-.19,0-.09,0-.19.16-.09.16-.19-.1-.1-.1-.19,0-.1,0-.19-.1-.1-.1-.19,0-.1,0-.19.11-.1.11-.19-.07-.1-.07-.19.11-.1.11-.19-.08-.1-.08-.19,0-.1,0-.19-.14-.1-.14-.19.08-.1.08-.19-.06-.1-.06-.2,0-.09,0-.19.07-.09.07-.19-.07-.09-.07-.19.1-.09.1-.19-.1-.1-.1-.19,0-.1,0-.19.07-.1.07-.19-.12-.1-.12-.19.14-.1.14-.19,0-.1,0-.2-.15-.09-.15-.19.08-.09.08-.19v-.19c0-.09.06-.09.06-.19s0-.09,0-.19,0-.09,0-.19,0-.1,0-.19-.05-.1-.05-.19,0-.1,0-.19.11-.1.11-.19,0-.1,0-.19,0-.1,0-.19,0-.1,0-.19,0-.1,0-.19v-.2c0-.09.06-.09.06-.19s0-.09,0-.19-.13-.09-.13-.19.06-.09.06-.19,0-.1,0-.19.11-.1.11-.19-.15-.1-.15-.19,0-.1,0-.2,0-.09,0-.19.08-.09.08-.19,0-.09,0-.19-.06-.09-.06-.19.09-.09.09-.19,0-.1,0-.19-.06-.1-.06-.19,0-.1,0-.19-.13-.1-.13-.19S40,24.1,40,24s0-.1,0-.2-.16-.09-.16-.19.13-.09.13-.19,0-.09,0-.19-.06-.09-.06-.19,0-.1,0-.19,0-.1,0-.19,0-.1,0-.19-.15-.1-.15-.2,0-.09,0-.19.1-.09.1-.19,0-.09,0-.19.06-.09.06-.19-.13-.1-.13-.19.16-.1.16-.19,0-.1,0-.19,0-.1,0-.19,0-.1,0-.2-.1-.09-.1-.19,0-.09,0-.19.07-.09.07-.19,0-.1,0-.19-.12-.1-.12-.19,0-.1,0-.19,0-.1,0-.2S40,19.13,40,19s-.16-.09-.16-.19,0-.09,0-.19.11-.09.11-.19,0-.1,0-.19-.13-.1-.13-.19.11-.1.11-.19-.07-.1-.07-.19,0-.1,0-.19.08-.1.08-.19-.05-.1-.05-.2S40,17,40,16.93s-.11-.09-.11-.19,0-.09,0-.19-.08-.1-.08-.19.1-.1.1-.19,0-.1,0-.19,0-.1,0-.19-.11-.1-.11-.19v-.2c0-.09.14-.09.14-.19s-.11-.09-.11-.19.09-.1.09-.19,0-.1,0-.19,0-.1,0-.19-.09-.1-.09-.2,0-.09,0-.19,0-.09,0-.19-.07-.1-.07-.19,0-.1,0-.19,0-.1,0-.19,0-.1,0-.2.1-.09.1-.19-.11-.09-.11-.19.16-.1.16-.19-.12-.1-.12-.19.12-.1.12-.2-.08-.09-.08-.19,0-.09,0-.19.11-.09.11-.19-.13-.1-.13-.19,0-.1,0-.19,0-.1,0-.2.06-.09.06-.19-.08-.1-.08-.19.06-.1.06-.19,0-.1,0-.2-.05-.09-.05-.19.08-.09.08-.19-.06-.1-.06-.19,0-.1,0-.2,0-.12,0-.18-.06-.13-.06-.19,0-.12,0-.19.09-.12.09-.18-.1-.12-.1-.19.08-.12.09-.18,0-.13,0-.19S39.83,8,39.83,8s0-.12,0-.18.07-.12.07-.19-.07-.12-.07-.19,0-.12,0-.18V7c0-.06,0-.12,0-.18s-.07-.13-.07-.19.09-.12.1-.19a1.08,1.08,0,0,1,0-.18c0-.06.08-.12.08-.19s-.13-.13-.13-.2a1.23,1.23,0,0,0,0-.19c0-.07,0-.13,0-.2s0-.13,0-.19.09-.13.09-.19,0-.13,0-.19a1.38,1.38,0,0,1,0-.2V4.55c0-.07-.07-.13-.07-.2a1.21,1.21,0,0,1,0-.19c0-.07,0-.13,0-.2s.13-.12.13-.19-.08-.13-.08-.19a1.36,1.36,0,0,0,0-.2c0-.06.07-.13.07-.19S40,3.06,40,3s0-.13,0-.2a1,1,0,0,0,0-.18c0-.07-.09-.1-.11-.16a.29.29,0,0,0-.1-.12s-.05-.12-.12-.14-.11,0-.18,0-.09,0-.16,0l-.17,0c-.06,0-.09.1-.15.13a1,1,0,0,0-.18.06c-.06,0-.15,0-.21,0l-.17.1c-.06,0-.14,0-.19,0s-.08.14-.14.17L38,2.85c-.06,0-.16-.05-.22,0l-.19,0c-.06,0-.09.11-.15.14s-.14,0-.2,0l-.17.09c-.06,0-.1.08-.16.1s-.08.14-.14.17-.17-.07-.23,0a1.4,1.4,0,0,1-.17.09c-.06,0-.09.13-.15.15s-.17-.1-.23-.08-.09.13-.15.15-.13,0-.19,0-.11.07-.17.09l-.18.07c-.07,0-.14,0-.21,0l-.18.06L34.72,4a1.51,1.51,0,0,0-.17.1c-.07,0-.12.07-.18.09a1.51,1.51,0,0,1-.18.09L34,4.36l-.2,0c-.07,0-.16-.06-.22,0s-.1.13-.16.15a.46.46,0,0,0-.15.09c-.05,0-.05.09-.09.14s-.18,0-.2.1.09.13.09.2,0,.07.07.13,0,.16,0,.21.12,0,.17.09.05.13.1.17,0,.14.09.18.18,0,.23,0L33.9,6c.05,0,0,.17.08.21s.09.08.15.11.17,0,.23,0,0,.16.09.2.12,0,.17.08a.88.88,0,0,1,.12.15.83.83,0,0,1,.11.15c0,.05.12.07.16.12s.16,0,.19.11,0,.13.06.19,0,.14,0,.2.12.09.14.15.08.11.1.17-.06.15-.05.22.12.1.13.17l0,.19c0,.06-.06.14,0,.2s.09.12.1.18V9c0,.06-.07.13-.07.2a1.08,1.08,0,0,1,0,.19c0,.09.08.09.08.19s-.1.09-.1.19,0,.09,0,.19.05.09.05.19-.07.09-.07.19.06.09.06.18,0,.1,0,.19-.17.1-.17.19.17.1.17.19-.16.1-.16.19,0,.1,0,.19,0,.1,0,.19.14.1.14.2-.14.09-.14.19.17.09.17.19,0,.09,0,.19v.19c0,.09,0,.09,0,.19s-.1.09-.1.19,0,.09,0,.19,0,.09,0,.19,0,.09,0,.19.12.1.12.19-.14.1-.14.19.14.1.14.19,0,.1,0,.19,0,.1,0,.19,0,.1,0,.19-.15.1-.15.19.14.1.14.19,0,.1,0,.19-.05.1-.05.19-.09.1-.09.19.07.1.07.19-.1.1-.1.19.17.1.17.19-.09.1-.09.19,0,.1,0,.19,0,.1,0,.19-.13.1-.13.19,0,.1,0,.19,0,.1,0,.19.06.1.06.19,0,.1,0,.19-.06.1-.06.19.06.1.06.19,0,.09,0,.19,0,.1,0,.19-.06.1-.06.19.16.1.16.19,0,.1,0,.19-.09.1-.09.19,0,.1,0,.19,0,.1,0,.19.09.1.09.19,0,.1,0,.19,0,.1,0,.19-.06.1-.06.19,0,.1,0,.2,0,.09,0,.19.06.09.06.19,0,.09,0,.19-.11.09-.11.19,0,.09,0,.19.14.09.14.19-.11.1-.11.19-.16,0-.2-.05,0-.13-.09-.17-.12-.06-.16-.11L35,21.44s-.1-.07-.15-.11l-.14-.12-.15-.11c-.05,0,0-.2-.06-.24l-.15-.11c-.05,0-.17,0-.22,0s-.08-.11-.13-.14l-.15-.12-.17-.09c-.05,0-.13,0-.19-.05s-.13,0-.19,0-.09-.1-.15-.13-.09-.1-.14-.13-.1-.09-.16-.12l-.17-.07c-.06,0-.15,0-.21,0s-.13,0-.19,0-.08-.17-.14-.19-.13,0-.19,0l-.18-.07c-.06,0-.1-.1-.16-.12s-.15.07-.21.05l-.19,0-.18,0c-.06,0-.14,0-.2,0s-.11-.11-.17-.12-.13,0-.19,0-.13,0-.2,0-.1-.2-.16-.2-.14.11-.2.1a1.08,1.08,0,0,1-.19,0c-.06,0-.12-.1-.19-.1s-.13.06-.19.06-.12-.07-.19-.07-.12.1-.19.1-.13-.1-.19-.1l-.2,0c-.06,0-.12.05-.19.05s-.12.11-.18.11-.13-.05-.2-.05-.13,0-.19,0-.14-.05-.2,0l-.19,0c-.06,0-.12.08-.18.09s-.15-.09-.21-.08l-.19.05c-.06,0-.11.11-.17.12a1.41,1.41,0,0,0-.2,0c-.06,0-.1.1-.17.12s-.14-.05-.2,0l-.18.07-.19.05c-.06,0-.15,0-.21,0s-.08.16-.14.18-.15,0-.21,0l-.18.05c-.06,0-.08.14-.14.16s-.17-.07-.23-.05-.06.2-.12.22-.12,0-.18.06-.14,0-.2,0l-.16.1c-.06,0-.14,0-.2,0s-.07.13-.12.17-.19-.07-.25,0-.07.14-.12.17a1,1,0,0,0-.17.1c-.05,0-.05.16-.1.19s-.14,0-.19.06-.07.12-.12.16-.17,0-.22,0-.06.13-.11.17-.08.11-.13.15-.2,0-.25,0,0,.16-.07.21l-.15.12-.14.13s0,.13-.1.17l-.13.14c-.05.05-.21,0-.25,0l-.14.14a.86.86,0,0,1-.13.14c0,.05,0,.15-.07.2s-.12.06-.16.11-.06.12-.1.17-.11.07-.15.12,0,.16-.05.21-.12.07-.15.12,0,.16,0,.21-.11.07-.14.12-.1.09-.14.14,0,.14-.06.19-.2,0-.23.07,0,.19,0,.24,0,.13-.06.18-.19,0-.22.09a1.58,1.58,0,0,1-.12.15c0,.06,0,.12-.07.18s0,.14,0,.19a1.39,1.39,0,0,0-.06.19l-.09.17a1.67,1.67,0,0,1-.05.18c0,.06,0,.12-.07.18s-.17.06-.19.12,0,.14,0,.2-.1.09-.12.15a1.33,1.33,0,0,0,0,.19,1.4,1.4,0,0,1-.09.17c0,.06,0,.14,0,.2s0,.14,0,.2-.18.07-.2.13.08.16.07.22-.12.1-.14.16S18,27.89,18,28l-.06.19c0,.06.1.15.09.21a1.34,1.34,0,0,0-.07.18c0,.06-.12.1-.13.17a1.16,1.16,0,0,0,0,.18c0,.07.06.15,0,.21s0,.12,0,.19-.17.1-.18.16.09.14.08.2-.15.11-.16.17.13.15.12.21-.05.12-.06.19-.06.12-.06.18a1.05,1.05,0,0,0-.05.19c0,.06.08.13.08.2a1.2,1.2,0,0,0,0,.19c0,.06-.13.12-.13.18s.06.13.06.19,0,.13,0,.19-.1.13-.1.19,0,.13,0,.19,0,.13,0,.2.06.12.06.19,0,.12,0,.19,0,.13,0,.19a1.21,1.21,0,0,0,0,.19c0,.06,0,.13,0,.19s0,.13,0,.2.09.12.1.18.06.12.07.18,0,.13,0,.2-.08.14-.07.2.09.11.1.18-.06.14,0,.2.12.11.13.17,0,.12.05.18,0,.13,0,.19,0,.14,0,.2.13.1.15.16a1.33,1.33,0,0,0,.05.19c0,.06-.13.16-.11.22s.12.1.14.16,0,.15,0,.21.13.09.15.15.05.11.07.17.07.11.09.17l.07.18c0,.06,0,.14,0,.2s.12.09.14.15-.07.17-.05.23.14.08.17.13.1.09.13.15l.09.17s-.05.17,0,.22.1.1.13.15.09.09.12.15.11.08.14.14,0,.14,0,.2a.91.91,0,0,1,.09.17s.14.06.18.11a1.29,1.29,0,0,0,.09.16c0,.05,0,.19,0,.24s.13.07.16.12.1.08.14.13.11.08.15.13a1.79,1.79,0,0,0,.14.13c0,.05.11.07.15.12s0,.15.06.2.06.12.1.17.16,0,.21.07,0,.17.05.21.2,0,.25,0,0,.17.06.21.14,0,.19.08,0,.15.09.19a1.66,1.66,0,0,0,.13.14s.2,0,.25,0,0,.14.1.18.15,0,.2,0,0,.2.08.23.15,0,.2,0,.08.13.13.16.13,0,.19.06a.93.93,0,0,0,.15.13c.05,0,.16,0,.22,0l.18.06c.06,0,.05.2.1.23s.15,0,.21,0l.18.06c.06,0,.09.14.15.16l.17.08.18.07.19,0,.18.07c.06,0,.16-.08.22-.06s.13,0,.2,0,.09.14.15.15l.19.06.19,0,.18,0c.07,0,.12.08.18.09s.14-.05.2,0,.12.1.18.11.15-.14.22-.13.11.08.18.09a1.21,1.21,0,0,0,.18.05c.07,0,.13,0,.19.06h.2l.19,0c.06,0,.13,0,.19,0s.13,0,.19,0,.13-.07.2-.07.13.06.19.06.13.06.19,0,.13-.12.19-.12.12,0,.19-.06.13.08.2.08.13,0,.2,0,.12-.07.18-.08.12-.07.18-.08.14,0,.2,0a1.41,1.41,0,0,1,.2,0c.06,0,.11-.11.17-.13a1.25,1.25,0,0,0,.19,0,1.23,1.23,0,0,0,.19,0c.07,0,.11-.09.17-.11s.14,0,.21,0l.17-.07c.07,0,.11-.09.17-.11l.18-.07a1.29,1.29,0,0,0,.19,0c.06,0,.14,0,.2,0a1.51,1.51,0,0,0,.17-.1c.06,0,.08-.14.14-.16s.13,0,.19,0a1.4,1.4,0,0,0,.17-.09l.19,0c.06,0,.13,0,.19,0S32.9,42,33,42s.15,0,.21,0a1,1,0,0,0,.18-.06c.06,0,.13,0,.18-.07s.13,0,.19-.06.06-.16.12-.19.17.06.23,0l.17-.09.17-.09c.06,0,.1-.09.16-.12l.15-.11.18-.09s0-.16.1-.19.12-.05.17-.09l.16-.11.15-.11c.05,0,.12-.06.16-.1h0a.12.12,0,0,1,.08.1c0,.09-.07.09-.07.19V41c0,.1,0,.1,0,.19s0,.1,0,.19.07.1.07.2-.16.09-.16.19,0,.09,0,.19.15.1.15.19-.16.1-.16.2,0,.09,0,.19a1.48,1.48,0,0,0,0,.2c0,.07.14.1.17.14s.1,0,.15.08.06.15.12.17.13,0,.19,0,.1.07.2.07.09,0,.19,0,.1-.1.19-.1.1.13.2.13.09,0,.19,0,.1-.08.2-.08.09,0,.19,0,.1-.08.19-.08.1,0,.2,0,.09,0,.19,0,.1,0,.2,0,.09.11.19.11h.19c.1,0,.1,0,.2,0s.1-.13.19-.13.1,0,.2,0,.09.05.19.05.09,0,.18,0,.1-.06.19-.06.1.13.19.13a.45.45,0,0,0,.19,0c0-.07,0-.13,0-.19S40.14,42.79,40.13,42.72ZM22,25.47c0-.06,0-.14,0-.21s0-.13.05-.19,0-.14.07-.2a1.51,1.51,0,0,1,.09-.18l.09-.18c0-.06.2,0,.23-.09l.12-.17c0-.05,0-.17,0-.22s.11-.09.14-.14a1.58,1.58,0,0,0,.12-.15l.11-.16s0-.13.08-.18,0-.14.08-.19.12-.07.16-.12.12-.06.16-.11.12-.06.16-.11l.14-.14s0-.15.07-.2.07-.11.12-.16.18,0,.23,0,.07-.12.12-.16l.16-.11c.05,0,.15,0,.2,0s0-.16.1-.19a1,1,0,0,1,.17-.1l.16-.1c.06,0,.09-.12.14-.15s.15,0,.21,0,.1-.1.16-.12.11-.09.17-.11.18.12.24.1.08-.16.14-.18l.19,0c.06,0,.15.05.21,0s.11-.1.17-.11.14,0,.2,0,.11-.12.18-.13.14.08.2.07a1.08,1.08,0,0,1,.19,0c.06,0,.12-.06.19-.07s.12-.1.18-.11.13.06.2.06a1.21,1.21,0,0,1,.19,0c.07,0,.13.06.2.06a1.21,1.21,0,0,1,.19,0c.06,0,.13-.05.2,0s.11.11.18.12h.19c.07,0,.14-.07.21-.06l.18.08c.06,0,.15-.05.21,0s.1.12.16.14l.19,0,.19.07c.06,0,.09.11.15.14s.17-.06.22,0,.09.12.15.15l.16.1c.05,0,.16,0,.22,0s0,.18.08.22.2,0,.25,0l.14.14c0,.05.06.13.1.17l.14.14c0,.05,0,.13.08.18s.15.06.18.12-.06.18,0,.24.13.08.15.14a1.34,1.34,0,0,1,.07.18c0,.06.15.09.17.15s0,.14,0,.21.09.11.1.17-.08.15-.07.22.09.12.09.18,0,.13.05.2-.16.13-.16.19.1.14.1.2a1.23,1.23,0,0,1,0,.2l0,.19c0,.07,0,.16,0,.21a.84.84,0,0,1-.09.19c0,.06-.2,0-.25.05l-.14.08-.17.07s-.09.1-.16.12-.12,0-.19,0l-.18.07c-.05,0-.12,0-.19,0s-.1.11-.17.12-.13,0-.19,0-.11.1-.18.11-.13,0-.19,0a1.23,1.23,0,0,0-.19,0c-.06,0-.12.07-.18.08s-.14-.15-.2-.14-.12.14-.18.15a1.8,1.8,0,0,0-.19.05c-.06,0-.13-.14-.19-.13a1.21,1.21,0,0,0-.19,0l-.19,0c-.06,0-.12.07-.18.07a1.06,1.06,0,0,0-.19,0h-.19c-.06,0-.12,0-.19,0l-.18,0c-.07,0-.13-.13-.2-.13s-.12.06-.18.06-.13-.06-.19-.06a1.29,1.29,0,0,0-.19,0l-.19,0c-.06,0-.12.08-.19.08s-.12.05-.19.05-.12-.15-.19-.15-.12.13-.19.13-.09-.08-.19-.08-.1,0-.2,0h-.19c-.1,0-.1.13-.19.13s-.1,0-.2,0-.09-.09-.19-.09h-.19c-.1,0-.1.09-.2.09h-.19c-.1,0-.1-.15-.2-.15s-.09.11-.19.11-.1-.13-.19-.13-.1.15-.19.15-.1,0-.2,0-.09,0-.19,0-.1,0-.19,0-.1.09-.2.09-.09,0-.19,0-.1-.13-.19-.13-.1.08-.2.08-.09,0-.19,0-.12-.1-.17-.11-.08-.05-.12-.09-.07-.06-.07-.13-.1-.14-.09-.21S22,25.54,22,25.47ZM35.32,38.16s-.1.07-.15.11,0,.13-.09.17l-.15.12s-.14,0-.19.06,0,.18-.07.22l-.15.11c-.06,0-.1.1-.15.13s-.09.11-.14.15-.14,0-.19.05-.16,0-.22,0-.09.11-.14.14-.07.15-.13.18-.14,0-.2,0-.14,0-.2,0-.11.09-.17.11-.14,0-.2,0-.11.07-.17.08-.14,0-.21,0l-.18,0c-.07,0-.12.06-.19.07l-.18.05c-.07,0-.12.08-.19.08h-.2c-.06,0-.13,0-.19,0s-.13.14-.19.14-.13-.15-.2-.15l-.19,0h-.38c-.06,0-.14.16-.2.15S30,40,29.93,40l-.19,0c-.06,0-.12,0-.18-.06h-.19c-.07,0-.15.11-.21.1S29,40,29,40s-.14,0-.2,0-.11-.09-.17-.11-.11-.09-.17-.11-.16.13-.23.11l-.18,0c-.06,0-.08-.19-.14-.21s-.16.09-.22.07-.11-.08-.17-.11l-.18-.06-.18-.06a.91.91,0,0,1-.16-.11c-.06,0-.11-.07-.17-.09l-.17-.08c-.06,0-.08-.12-.14-.15s-.17,0-.22,0-.08-.12-.13-.16-.08-.12-.13-.15a.91.91,0,0,1-.17-.09c-.05,0-.18,0-.24,0l-.15-.12c-.05,0,0-.18-.07-.22s-.19,0-.24,0L25,38.19c-.05,0,0-.17-.07-.21s-.18,0-.23,0,0-.16-.08-.2a1.79,1.79,0,0,0-.14-.13.86.86,0,0,1-.14-.13s-.12-.06-.16-.11a.86.86,0,0,1-.14-.13l-.11-.16c0-.05,0-.19,0-.24s-.2,0-.24,0,0-.14-.07-.19a1.42,1.42,0,0,1-.08-.18l-.13-.15s-.1-.08-.13-.14-.14-.06-.18-.11.08-.21.05-.26-.22,0-.25-.07,0-.17,0-.23-.08-.09-.11-.15,0-.14-.05-.19a1.34,1.34,0,0,1-.07-.18c0-.05-.11-.09-.14-.15s-.12-.08-.14-.14,0-.15,0-.2-.14-.09-.16-.15.08-.17.06-.23-.19-.06-.21-.12.1-.18.08-.24-.09-.1-.11-.16-.12-.1-.14-.16,0-.14,0-.2,0-.13,0-.2,0-.13,0-.19-.13-.1-.15-.16,0-.14,0-.2-.13-.11-.14-.17.08-.15.06-.21-.06-.12-.07-.18-.05-.12-.06-.19,0-.13,0-.19-.08-.12-.08-.18-.07-.13-.08-.19.09-.14.09-.2,0-.13,0-.2-.07-.12-.08-.18v-.2c0-.06-.07-.12-.08-.18s.06-.14.06-.2,0-.13,0-.19a1.15,1.15,0,0,1,0-.19c0-.07,0-.13,0-.19s-.14-.14-.14-.2.14-.13.14-.19-.11-.14-.1-.2,0-.14,0-.2.16-.11.17-.17a1,1,0,0,1,0-.18c0-.07,0-.15,0-.19s.07-.11.15-.14.12,0,.2,0l.18,0c.06,0,.13.06.2.06s.11-.08.18-.08a1.37,1.37,0,0,1,.19,0c.06,0,.12-.14.18-.14s.13.11.2.11h.19c.06,0,.12-.12.19-.12s.12.08.19.08.12,0,.19,0l.18,0h.19c.07,0,.13,0,.19,0s.13.06.19.06.13,0,.19,0,.13,0,.19,0h.19c.07,0,.13.08.19.08s.13-.17.19-.17.13.16.19.16.13-.06.19-.06h.19c.06,0,.13-.05.19-.05l.19,0c.06,0,.13-.05.19-.05h.19c.06,0,.13.11.19.11s.13-.09.19-.09.13.11.19.11.13-.13.19-.13h.19c.06,0,.13,0,.19,0s.13.08.19.08.13.05.19.05.13-.05.19-.05l.19,0,.19,0c.07,0,.13-.08.2-.08s.12.07.19.07.12-.11.19-.11.12.06.19.06.13.07.19.07.13-.11.19-.11.13.12.19.12l.19,0c.06,0,.13-.11.19-.11h.19l.19,0h.19c.07,0,.13.07.19.07s.13,0,.19,0,.13.05.19.05.13-.13.19-.13.13,0,.19,0l.19,0c.07,0,.13,0,.19,0h.57c.07,0,.13-.05.19-.05s.13.07.19.07.13-.12.2-.12.12,0,.19,0,.12.08.19.08l.19,0c.06,0,.12,0,.19,0s.12-.11.19-.11.12,0,.19,0l.19,0,.19,0h.19l.19,0h.07V28c0,.09,0,.09,0,.19s0,.09,0,.19,0,.1,0,.19,0,.1,0,.19-.12.1-.12.19.08.1.08.19,0,.1,0,.2,0,.09,0,.19,0,.09,0,.19,0,.09,0,.19,0,.09,0,.19,0,.09,0,.19,0,.1,0,.19.12.1.12.19-.13.1-.13.19V31c0,.1,0,.1,0,.19v.19c0,.1,0,.1,0,.2s.09.09.09.19-.12.09-.12.19.15.09.15.19-.1.1-.1.19.1.1.1.19-.13.1-.13.19,0,.1,0,.19v.19c0,.1.14.1.14.19s-.13.1-.13.19.06.1.06.19,0,.1,0,.19.05.1.05.19,0,.1,0,.2-.13.09-.13.19,0,.09,0,.19.15.09.15.19-.09.09-.09.19,0,.1,0,.19.11.1.11.19,0,.1,0,.19-.06.1-.06.19,0,.1,0,.19,0,.1,0,.19.09.1.09.2,0,.09,0,.19,0,.09,0,.19-.07.09-.07.19.15.1.15.19-.09.1-.09.19,0,.1,0,.19,0,.1,0,.19,0,.1,0,.2,0,.07.08.1a.42.42,0,0,0-.16,0S35.37,38.12,35.32,38.16Z"/></g></svg>