<svg xmlns="http://www.w3.org/2000/svg" viewBox="0 0 190 55"><defs><style>.cls-1{fill:#eae9eb;}.cls-2{fill:#5c5858;}.cls-3{fill:#cf3b25;}.cls-4{fill:#fff;}</style></defs><g id="橫式"><path class="cls-1" d="M83,5.5h66a2,2,0,0,1,2,2V47.54a2,2,0,0,1-2,2H83a0,0,0,0,1,0,0V5.5a0,0,0,0,1,0,0Z"/><path class="cls-2" d="M82.92,32.58a3.2,3.2,0,0,0,1,1.13,4.14,4.14,0,0,0,1.41.64,6.67,6.67,0,0,0,1.68.21,9.57,9.57,0,0,0,1.26-.09,4.73,4.73,0,0,0,1.26-.38,2.87,2.87,0,0,0,1-.77,2,2,0,0,0,.39-1.25,1.72,1.72,0,0,0-.52-1.31A3.89,3.89,0,0,0,89,29.92a14.46,14.46,0,0,0-1.91-.59c-.7-.17-1.42-.35-2.15-.56a17.79,17.79,0,0,1-2.18-.68A7.43,7.43,0,0,1,80.85,27a4.93,4.93,0,0,1-1.36-1.61A4.82,4.82,0,0,1,79,23.09a5.23,5.23,0,0,1,.66-2.67,6.09,6.09,0,0,1,1.72-1.89,7.73,7.73,0,0,1,2.41-1.12,10.29,10.29,0,0,1,2.68-.36,12.86,12.86,0,0,1,3,.35A7.52,7.52,0,0,1,92,18.53a5.77,5.77,0,0,1,1.77,2,6.16,6.16,0,0,1,.66,3H90.19A3.5,3.5,0,0,0,89.81,22a2.44,2.44,0,0,0-.85-.92,3.89,3.89,0,0,0-1.22-.48,7.62,7.62,0,0,0-1.49-.14,4.88,4.88,0,0,0-1.07.12,2.7,2.7,0,0,0-1,.39,2.4,2.4,0,0,0-.72.7,1.92,1.92,0,0,0-.28,1.06,1.78,1.78,0,0,0,.23.95,2,2,0,0,0,.88.67,11.08,11.08,0,0,0,1.82.62l3,.78c.38.08.89.21,1.56.41a7.64,7.64,0,0,1,2,.93,6.16,6.16,0,0,1,1.69,1.72,4.88,4.88,0,0,1,.71,2.76,6.07,6.07,0,0,1-.53,2.55,5.41,5.41,0,0,1-1.58,2,7.5,7.5,0,0,1-2.6,1.33,12.19,12.19,0,0,1-3.59.48,12.67,12.67,0,0,1-3.21-.41,8,8,0,0,1-2.74-1.27A6.42,6.42,0,0,1,79,34.06a6.67,6.67,0,0,1-.67-3.19h4.25A3.6,3.6,0,0,0,82.92,32.58Z"/><path class="cls-2" d="M102.11,17.53v20h-4.4v-20Z"/><path class="cls-2" d="M114.58,17.53a10.31,10.31,0,0,1,3.6.61A7.8,7.8,0,0,1,121.06,20a8.59,8.59,0,0,1,1.9,3.08,12.33,12.33,0,0,1,.69,4.33,13.92,13.92,0,0,1-.56,4,9,9,0,0,1-1.7,3.19,7.76,7.76,0,0,1-2.82,2.11,9.47,9.47,0,0,1-4,.77H106v-20Zm-.3,16.28a5.51,5.51,0,0,0,1.84-.31,4,4,0,0,0,1.6-1,5.3,5.3,0,0,0,1.12-1.86,8.18,8.18,0,0,0,.42-2.8,11.53,11.53,0,0,0-.3-2.73A5.46,5.46,0,0,0,118,23a4.29,4.29,0,0,0-1.78-1.33,7.08,7.08,0,0,0-2.73-.46h-3.13V33.81Z"/><path class="cls-2" d="M141.63,17.53v3.69H131.09V25.5h9.68v3.41h-9.68v4.9h10.77V37.5H126.7v-20Z"/><path class="cls-3" d="M41,5.5H83a0,0,0,0,1,0,0v44a0,0,0,0,1,0,0H41A1.93,1.93,0,0,1,39,47.57V7.43A1.93,1.93,0,0,1,41,5.5Z"/><path class="cls-4" d="M52.5,17.51v20H48.11v-20Z"/><path class="cls-4" d="M61.46,17.51l8.34,13.4h0V17.51H74v20h-4.4l-8.3-13.38h-.06V37.49H57.1v-20Z"/></g></svg>