<svg xmlns="http://www.w3.org/2000/svg" viewBox="0 0 74.21 61.57"><defs><style>.a{fill:#fff;}.b,.c{fill:#1c1c1b;}.b,.e{stroke:#fff;}.b,.d,.e{stroke-miterlimit:10;}.d,.e{fill:none;}.d{stroke:#1c1c1b;stroke-width:0.75px;}.e{stroke-width:0.5px;}</style></defs><path class="a" d="M54.71,37.77V57.15a3.61,3.61,0,0,1-3.61,3.61H10.21a3.63,3.63,0,0,1-3.62-3.62V3.61A3.62,3.62,0,0,1,10.21,0H51.09a3.63,3.63,0,0,1,3.62,3.62V26.37"/><path class="b" d="M49.09,43.25l-1.59.49a3.35,3.35,0,0,1-4.12-4.43L43.89,38a3.39,3.39,0,0,1,.76-1.15L66.83,14.66a4,4,0,0,1,5.7,0h0a4,4,0,0,1,0,5.69L50.47,42.42A3.43,3.43,0,0,1,49.09,43.25Z"/><rect class="c" x="15.45" y="9.49" width="30.4" height="11.83" rx="3.54"/><line class="d" x1="15.45" y1="29.64" x2="19.66" y2="29.64"/><line class="d" x1="23.82" y1="29.64" x2="43.83" y2="29.64"/><line class="d" x1="15.45" y1="45.64" x2="33.82" y2="45.64"/><line class="d" x1="36.71" y1="45.64" x2="41.04" y2="45.64"/><line class="d" x1="15.45" y1="37.66" x2="40.41" y2="37.66"/><line class="e" x1="0.25" y1="36.88" x2="0.25" y2="18.59"/><line class="e" x1="0.25" y1="15.84" x2="0.25" y2="11.75"/><line class="e" x1="60.52" y1="43.71" x2="60.52" y2="61.57"/></svg>