<svg xmlns="http://www.w3.org/2000/svg" viewBox="0 0 87.07 87.07"><defs><style>.a,.d,.e{fill:#fff;}.a{stroke:#b8babc;stroke-linejoin:round;stroke-width:3px;}.b{fill:#1c1c1b;}.c{fill:none;stroke:#fff;}.c,.e{stroke-miterlimit:10;stroke-width:0.5px;}.e{stroke:#1c1c1b;}</style></defs><circle class="a" cx="43.53" cy="43.53" r="42.03" transform="translate(-6.41 79.53) rotate(-80.78)"/><rect class="b" x="18.08" y="23.41" width="51.58" height="38.74" rx="0.71"/><line class="c" x1="25.61" y1="47.11" x2="25.61" y2="53.4"/><line class="c" x1="33.39" y1="39.36" x2="33.39" y2="53.4"/><line class="c" x1="36.94" y1="43.01" x2="36.94" y2="53.4"/><line class="c" x1="29.45" y1="36.3" x2="29.45" y2="53.4"/><path class="d" d="M52.89,43.94l0-8.74h0a8.75,8.75,0,1,0,8.74,8.74Z"/><path class="d" d="M54.75,42.28l0-6.73a6.73,6.73,0,0,1,6.68,6.73Z"/><line class="e" x1="12.6" y1="38.92" x2="12.6" y2="53.84"/><line class="e" x1="12.6" y1="57.18" x2="12.6" y2="62.15"/><line class="e" x1="74.46" y1="34.27" x2="74.46" y2="53.61"/></svg>