<svg xmlns="http://www.w3.org/2000/svg" viewBox="0 0 85.5 74.47"><defs><style>.a{fill:none;stroke:#fff;stroke-miterlimit:10;stroke-width:0.5px;}.b{fill:#fff;}.c{fill:#1c1c1b;}</style></defs><line class="a" x1="0.25" y1="46.04" x2="0.25" y2="25.24"/><line class="a" x1="0.25" y1="22.11" x2="0.25" y2="17.46"/><line class="a" x1="85.25" y1="53.8" x2="85.25" y2="74.11"/><rect class="b" x="13.66" width="50.57" height="69.14"/><path class="c" d="M29.47,17.76H27.1c.17.2.32.41.5.59a.52.52,0,0,1,.1.62c-.67,1.61-1.33,3.22-2,4.82a.46.46,0,0,0,.11.6c.69.67,1.37,1.36,2,2,.11.11.2.22.34.38a18,18,0,0,1-1.81,0c-1.57-.15-3.14-.31-4.7-.56A5.38,5.38,0,0,1,19,25.18a1,1,0,0,1-.4-.92,5.82,5.82,0,0,1,1.18-3,10.67,10.67,0,0,1,4.7-3.69c.41-.17.83-.29,1.24-.44l.14-.18a1,1,0,0,1-.35-.14A6.79,6.79,0,0,1,23,11.59a5.33,5.33,0,0,1,10.2-2.26,5.48,5.48,0,0,1,.14,4.06A7.14,7.14,0,0,1,31,16.85a1.25,1.25,0,0,0-.2.23l.75.26a10.7,10.7,0,0,1,5.19,3.81,6.37,6.37,0,0,1,1.17,2.53c.21,1.06,0,1.56-1,1.94a15.56,15.56,0,0,1-2.5.73,32.33,32.33,0,0,1-5.65.49l-.28,0,.27-.33c.69-.69,1.37-1.38,2.07-2.06a.51.51,0,0,0,.14-.66c-.68-1.59-1.33-3.19-2-4.79a.52.52,0,0,1,.11-.65C29.15,18.16,29.3,18,29.47,17.76Z"/><path class="b" d="M41.84,48.22A14.39,14.39,0,1,1,56.22,62.51,14.34,14.34,0,0,1,41.84,48.22ZM56.2,36.11a12,12,0,1,0,12,12A12,12,0,0,0,56.2,36.11Z"/><path class="b" d="M56.27,64.11h-.05A16,16,0,0,1,45,36.78a15.76,15.76,0,0,1,11-4.63,16,16,0,1,1,.28,32ZM56.2,37.7a10.53,10.53,0,0,0-7.4,3.09,10.42,10.42,0,1,0,14.87,0A10.54,10.54,0,0,0,56.2,37.7Z"/><path class="c" d="M51.06,30.86c-.57.21-1.14.4-1.69.62A18.22,18.22,0,0,0,46,33.32a1.36,1.36,0,0,1-.73.22H20.33a1.71,1.71,0,0,1-1.15-.3,1.39,1.39,0,0,1-.5-1.48,1.32,1.32,0,0,1,1.08-1,5.83,5.83,0,0,1,.72-.06H50.55c.17,0,.34,0,.5,0Z"/><path class="b" d="M65.67,71.5a2.68,2.68,0,0,1-.27-.34L63,66.94c-.63-1.1-1.25-2.2-1.9-3.28-.16-.27-.12-.41.15-.56,1.83-1.05,3.65-2.1,5.47-3.17.29-.17.42-.12.58.17,1.44,2.5,2.88,5,4.34,7.5.18.31.12.45-.17.61-1.83,1-3.64,2.09-5.45,3.13Z"/><path class="c" d="M41.8,37.24c-.09.16-.13.27-.19.37-.44.71-.88,1.42-1.3,2.13a.55.55,0,0,1-.54.32H20.22a1.42,1.42,0,1,1-.12-2.83,3,3,0,0,1,.42,0H41.21Z"/><path class="c" d="M29.28,43.7h9c.49,0,.49,0,.42.49-.11.67-.23,1.35-.33,2,0,.27-.17.35-.43.35-.89,0-1.79,0-2.69,0H20.41a2.55,2.55,0,0,1-1.06-.22,1.34,1.34,0,0,1-.68-1.54A1.46,1.46,0,0,1,20,43.71h9.25Z"/><path class="c" d="M52.62,65.83l-.37,0H41.48a1.57,1.57,0,0,1-1.09-.33,1.34,1.34,0,0,1-.46-1.44,1.22,1.22,0,0,1,1.08-1c.66-.06,1.33-.06,2-.07.93,0,1.87,0,2.8,0a1.37,1.37,0,0,1,.68.19A19.57,19.57,0,0,0,51,65.33c.52.16,1.06.27,1.59.4Z"/><path class="b" d="M66.28,72.69l6.15-3.55a3.32,3.32,0,0,1,.18,3.21,3.39,3.39,0,0,1-2.89,2.1A3.51,3.51,0,0,1,66.28,72.69Z"/><path class="c" d="M37.5,53.1c-.47-.05-1-.05-1.42-.14A1.3,1.3,0,0,1,35,51.67a1.32,1.32,0,0,1,1-1.37,8.34,8.34,0,0,1,1.5-.09c.78,0,.78,0,1,.74l.36,1.69c.07.28,0,.44-.32.42s-.66,0-1,0Z"/><path class="c" d="M56.2,36.11a12,12,0,1,1-12,12.15A12,12,0,0,1,56.2,36.11Z"/></svg>