<svg xmlns="http://www.w3.org/2000/svg" viewBox="0 0 87.07 87.07"><defs><style>.a,.d,.e,.g{fill:#fff;}.a{stroke:#b8babc;stroke-linejoin:round;stroke-width:3px;}.b{fill:#1c1c1b;}.c,.f{fill:none;}.c,.d,.f{stroke:#fff;}.c,.d,.e,.f{stroke-miterlimit:10;}.c,.d{stroke-width:0.32px;}.e{stroke:#1c1c1b;}.e,.f{stroke-width:0.5px;}</style></defs><circle class="a" cx="43.53" cy="43.53" r="42.03" transform="translate(-6.41 79.53) rotate(-80.78)"/><rect class="b" x="18.33" y="23.43" width="50.14" height="39.72"/><line class="c" x1="18.33" y1="32.09" x2="68.47" y2="32.09"/><circle class="d" cx="22.66" cy="28.02" r="0.97"/><circle class="d" cx="29.45" cy="28.02" r="0.97"/><circle class="d" cx="26.05" cy="28.02" r="0.97"/><line class="e" x1="13.58" y1="36.61" x2="13.58" y2="54.03"/><line class="e" x1="13.58" y1="57.39" x2="13.58" y2="62.07"/><line class="c" x1="73.49" y1="23.25" x2="73.49" y2="26.15"/><line class="e" x1="73.49" y1="29.29" x2="73.49" y2="39.21"/><line class="f" x1="46.56" y1="39.64" x2="60.54" y2="39.64"/><line class="f" x1="46.56" y1="46.52" x2="60.54" y2="46.52"/><line class="f" x1="46.56" y1="49.95" x2="54.02" y2="49.95"/><line class="f" x1="46.56" y1="43.08" x2="49.69" y2="43.08"/><line class="f" x1="36.4" y1="59.73" x2="39.53" y2="59.73"/><line class="f" x1="41.83" y1="59.73" x2="44.96" y2="59.73"/><line class="f" x1="47.27" y1="59.73" x2="50.4" y2="59.73"/><line class="f" x1="51.57" y1="43.08" x2="60.54" y2="43.08"/><path class="g" d="M32.63,38.93a.51.51,0,0,1,.47-.3.5.5,0,0,1,.47.3l1.35,2.86a.52.52,0,0,0,.41.29l3.13.4a.5.5,0,0,1,.43.36.52.52,0,0,1-.13.54l-2.31,2.16a.53.53,0,0,0-.15.48l.59,3.1a.5.5,0,0,1-.21.52.52.52,0,0,1-.56,0l-2.77-1.52a.5.5,0,0,0-.5,0l-2.77,1.52a.52.52,0,0,1-.76-.56l.59-3.1a.53.53,0,0,0-.16-.48l-2.3-2.16a.52.52,0,0,1-.14-.54.5.5,0,0,1,.43-.36l3.14-.4a.51.51,0,0,0,.4-.29Z"/></svg>