<svg xmlns="http://www.w3.org/2000/svg" viewBox="0 0 87.07 87.07"><defs><style>.a,.c{fill:#fff;}.a{stroke:#b8babc;stroke-linejoin:round;stroke-width:3px;}.b{fill:#1c1c1b;}.b,.c{stroke:#1c1c1b;stroke-miterlimit:10;stroke-width:0.5px;}</style></defs><circle class="a" cx="43.53" cy="43.53" r="42.03" transform="translate(-6.41 79.53) rotate(-80.78)"/><path class="b" d="M51.48,22.2h0a6.59,6.59,0,0,1,4.39,2.32,1.71,1.71,0,0,1,.11.14,6.57,6.57,0,0,1,1.33,2.92,6.73,6.73,0,0,1-.11,2.86,6.59,6.59,0,0,1-11.53,2.42,6.88,6.88,0,0,1-.68-1,6.59,6.59,0,0,1,6.49-9.62Z"/><path class="b" d="M27.09,36.76a6.49,6.49,0,0,1,2.19,1.7l.12.14a6.5,6.5,0,0,1,.68,1,6.58,6.58,0,0,1,.75,3.2,6.58,6.58,0,0,1-2.49,5,6.31,6.31,0,0,1-1.09.7,6.07,6.07,0,0,1-1.28.5,6.59,6.59,0,1,1,1.12-12.3Z"/><path class="b" d="M51.34,46.26a9.88,9.88,0,0,1,2.07-.81,10.79,10.79,0,0,1,5-.13,10.45,10.45,0,0,1,3.67,1.56,10.66,10.66,0,0,1,2.4,2.21c.15.2.3.39.44.59h0l0,0a10.38,10.38,0,0,1,1.16,2.21A10.68,10.68,0,0,1,64.9,61.8c-.15.21-.31.42-.47.62h0c-.16.19-.32.38-.49.56a11.14,11.14,0,0,1-1.13,1,10.52,10.52,0,0,1-4.51,2.1h0A10.62,10.62,0,0,1,49.57,47.4,9.86,9.86,0,0,1,51.34,46.26Z"/><line class="c" x1="30.34" y1="45.19" x2="46.35" y2="51.7"/><line class="c" x1="35.42" y1="50.51" x2="41.28" y2="52.89"/><line class="c" x1="30.08" y1="39.65" x2="44.99" y2="31.82"/></svg>