<svg xmlns="http://www.w3.org/2000/svg" viewBox="0 0 112.48 82.95"><defs><style>.a{fill:#fff;}.b,.c{fill:none;stroke:#fff;stroke-miterlimit:10;}.c{stroke-width:0.5px;}</style></defs><rect class="a" x="42.98" y="12.64" width="30.33" height="52.59" rx="15.17"/><path class="b" d="M78.79,49.59A20.64,20.64,0,0,1,58.15,70.23h0A20.65,20.65,0,0,1,37.5,49.59"/><line class="b" x1="58.15" y1="82.45" x2="58.15" y2="70.23"/><line class="b" x1="69.84" y1="82.45" x2="46.46" y2="82.45"/><line class="c" x1="58.15" x2="58.15" y2="6.19"/><line class="c" x1="67" y1="0.34" x2="63.77" y2="6.82"/><line class="c" x1="49.69" y1="0.34" x2="52.91" y2="6.82"/><line class="c" x1="4.32" y1="30.08" x2="25.16" y2="30.08"/><line class="c" x1="20.84" y1="39.94" x2="33.78" y2="39.94"/><line class="c" x1="91.26" y1="44.48" x2="112.48" y2="44.48"/><line class="c" x1="91.26" y1="57.68" x2="107.39" y2="57.68"/><line class="c" y1="56.06" x2="24.42" y2="56.06"/></svg>