<svg xmlns="http://www.w3.org/2000/svg" viewBox="0 0 87.07 87.07"><defs><style>.a,.c,.f{fill:#fff;}.a{stroke:#b8babc;stroke-linejoin:round;stroke-width:3px;}.b{fill:#1c1c1b;}.d,.e{fill:none;}.d{stroke:#fff;}.d,.e,.f{stroke-miterlimit:10;stroke-width:0.5px;}.e,.f{stroke:#1c1c1b;}</style></defs><circle class="a" cx="43.53" cy="43.53" r="42.03" transform="matrix(0.16, -0.99, 0.99, 0.16, -6.41, 79.53)"/><path class="b" d="M52,41.44V56.5a.17.17,0,0,1-.17.17H20.32a.18.18,0,0,1-.17-.17V16.58a.17.17,0,0,1,.16-.17H51.85a.18.18,0,0,1,.18.18v17.3"/><rect class="c" x="26.02" y="21.1" width="20.14" height="3.1" rx="0.06"/><line class="d" x1="26.02" y1="39.17" x2="28.8" y2="39.17"/><line class="d" x1="31.56" y1="39.17" x2="44.82" y2="39.17"/><line class="d" x1="26.02" y1="49.27" x2="38.19" y2="49.27"/><line class="d" x1="40.1" y1="49.27" x2="42.97" y2="49.27"/><line class="d" x1="26.02" y1="44.22" x2="42.55" y2="44.22"/><line class="d" x1="26.02" y1="36.65" x2="35.42" y2="36.65"/><line class="d" x1="26.02" y1="34.12" x2="46.16" y2="34.12"/><line class="d" x1="26.02" y1="31.6" x2="46.16" y2="31.6"/><line class="d" x1="26.02" y1="28.08" x2="40.1" y2="28.08"/><line class="d" x1="26.02" y1="46.74" x2="40.1" y2="46.74"/><line class="d" x1="26.02" y1="41.69" x2="42.55" y2="41.69"/><line class="e" x1="15.94" y1="49.18" x2="15.94" y2="37.06"/><line class="e" x1="15.94" y1="35.24" x2="15.94" y2="32.53"/><line class="e" x1="55.88" y1="20.85" x2="55.88" y2="32.69"/><path class="b" d="M34.06,45.7H68.24a1.24,1.24,0,0,1,1.24,1.24V70a.68.68,0,0,1-.68.68H34.06a.68.68,0,0,1-.68-.68V46.37A.68.68,0,0,1,34.06,45.7Z"/><path class="c" d="M56.68,58.06l-9-5.16a.13.13,0,0,0-.19.11V63.34a.13.13,0,0,0,.19.11l9-5.16A.13.13,0,0,0,56.68,58.06Z"/><line class="f" x1="29.68" y1="53.3" x2="29.68" y2="63.8"/><line class="f" x1="72.75" y1="63.07" x2="72.75" y2="68.35"/><line class="f" x1="72.75" y1="58.1" x2="72.75" y2="60.74"/></svg>