<svg xmlns="http://www.w3.org/2000/svg" viewBox="0 0 190 55"><defs><style>.cls-1{fill:#2369a6;}.cls-2{fill:#4396ca;}.cls-3{fill:#366aa2;}</style></defs><g id="橫式"><path class="cls-1" d="M184.31,19.59h3.05V7H162.79V19.59h3.26l-4.73,5.85h4.15v3.78l-3.05,4.24h6.37l2.17-3.2V23.61h-1.74l3.32-4h5.24l3.39,4h-1.8v9.85h5.43v-8h4Zm-11.89-2.9h-3.9v-2h3.9Zm0-4.78h-3.9v-2h3.9Zm9.3,4.78h-3.91v-2h3.91Zm0-4.78h-3.91v-2h3.91Z"/><polygon class="cls-1" points="75.77 12.58 72.99 6.6 67.23 6.6 69.91 12.58 75.77 12.58"/><path class="cls-1" d="M88.52,30.65V29.19h5.64V26.48H88.52V25.29h5.64V15.47H88.52V14.31h5.64V12H88.52V10.53H83.18V12H77.4v2.34h5.78v1.16H77.4v9.82h5.78v1.19H77.4v2.71h5.78v1.46H78.12l-3-1.45V21.78H73.24l2.66-4.54V13.61H68v2.87h2.81l-2.5,5.18v2.62h2.31v4.45l-2.77,4.73h4.89l1-1.71,3.7,1.71H95.14V30.65Zm0-12.79h2.32v1.67H88.47Zm-5,5.09H81.15V21.24h2.33Zm0-3.42H81.15V17.86h2.33Zm5,1.71h2.32V23H88.47Z"/><polygon class="cls-1" points="81.93 9.71 89.77 9.71 89.77 11.2 94.16 11.2 94.16 6.94 77.4 6.94 77.4 11.2 81.93 11.2 81.93 9.71"/><polygon class="cls-1" points="140.46 17.91 137.65 17.91 140.39 12.82 140.39 9.65 138.47 9.65 137.53 6.6 131.65 6.6 132.53 9.65 129.85 9.65 129.85 12.64 134.69 12.64 129.36 22.42 131.46 22.42 131.46 33.46 136.92 33.46 136.92 19.25 137.38 18.43 138.17 25.07 141.28 25.07 140.46 17.91"/><polygon class="cls-1" points="136.64 33.46 142.19 33.46 148.43 26.48 142.94 26.48 136.64 33.46"/><path class="cls-1" d="M154.86,25.11h1.77V6.94H142.12V25.11h7.41v8.35h19.26V29H154.86Zm-3.72-2.78h-3.57V20h3.57Zm0-5.12h-3.57V14.93h3.57Zm0-5.06h-3.57V9.86h3.57Z"/><path class="cls-1" d="M120.64,11.6V6.69h-4.45V11.6h-.83v2.69h.83V27.36l-1.33,3.91.12-.36-.12.36-.29.84v0l-.22.63v.69H119l.88-2.47,1.29,2.41,4.93-.11V11.59Zm1,18.93H120l.61-1.74V14.29h1Z"/><path class="cls-1" d="M113,10.48l.64-1.69.82-2.15h-5.55l-.55,1.22H99.66v2.62h4.59v1.07H99.66v2.71h4.59v1.07H99.66V25.45h4.59v1.19H99.67v2.5h4.58v1.72H99.67v2.5h13.85l.15-.42V30.86h-4.52V29.14h4.52v-2.5h-4.52V25.45h4.52V15.33h-4.51V14.26h4.51V11.55h-4.51V10.48Zm-8.82,12.45h-2.33V21.21h2.33Zm0-3.42h-2.33V17.83h2.33Zm5-1.67h2.33v1.67H109.2Zm0,3.37h2.32v1.72H109.2Z"/><path class="cls-2" d="M72.63,41.26a11.85,11.85,0,0,1-1.8-1.5,1.26,1.26,0,0,1-.29-.84.94.94,0,0,1,.3-.74,1.43,1.43,0,0,1,1.75,0,5.81,5.81,0,0,1,.9,1l.33.45,1.83-1.43-.3-.42a6.19,6.19,0,0,0-1.59-1.63,3.59,3.59,0,0,0-2.06-.6,3.45,3.45,0,0,0-2.5,1,3.27,3.27,0,0,0-1,2.41,3.59,3.59,0,0,0,.25,1.32,3.76,3.76,0,0,0,.77,1.21A15.17,15.17,0,0,0,71,43a10.31,10.31,0,0,1,1.77,1.6,1.8,1.8,0,0,1,.45,1.09,1.37,1.37,0,0,1-.48,1.08,1.81,1.81,0,0,1-1.25.46c-.75,0-1.44-.59-2.07-1.73L69.2,45l-2,1.16.24.46A4.64,4.64,0,0,0,71.7,49.5a3.94,3.94,0,0,0,2.78-1.13,3.66,3.66,0,0,0,1.2-2.71,3.85,3.85,0,0,0-.78-2.27A10.82,10.82,0,0,0,72.63,41.26Z"/><path class="cls-2" d="M84.54,36.73A3.91,3.91,0,0,0,83.12,36a14.21,14.21,0,0,0-3-.19h-3V49.19h2.31v-5.7h.33a17.44,17.44,0,0,0,3.28-.23,3.5,3.5,0,0,0,2-1.19,3.63,3.63,0,0,0,.81-2.42A3.81,3.81,0,0,0,85.56,38,3.57,3.57,0,0,0,84.54,36.73Zm-1,2.92a1.59,1.59,0,0,1-.46,1.14c-.16.16-.62.44-1.9.44H79.48v-3.1h1.63C83.55,38.13,83.55,39.19,83.55,39.65Z"/><path class="cls-2" d="M97.24,36.46a7.18,7.18,0,0,0-7,0A6.76,6.76,0,0,0,87.67,39a7.14,7.14,0,0,0-.92,3.55,6.85,6.85,0,0,0,3.5,6,7.06,7.06,0,0,0,3.52.92,7,7,0,0,0,3.51-.93A6.72,6.72,0,0,0,99.83,46a7,7,0,0,0,.92-3.51A6.9,6.9,0,0,0,99.82,39,6.63,6.63,0,0,0,97.24,36.46Zm1.15,6.06a4.64,4.64,0,1,1-9.28,0,4.57,4.57,0,0,1,1.33-3.35,4.35,4.35,0,0,1,3.28-1.36,4.66,4.66,0,0,1,4.67,4.7Z"/><path class="cls-2" d="M109.63,42.54A3.53,3.53,0,0,0,111,39.65a4,4,0,0,0-.36-1.66,3.3,3.3,0,0,0-1-1.26,4,4,0,0,0-1.49-.69,14.74,14.74,0,0,0-2.93-.19h-3V49.19h2.31V43.63l4.3,5.56h2.89l-4.45-5.74A4.46,4.46,0,0,0,109.63,42.54Zm-1-2.87a1.25,1.25,0,0,1-.5,1.15,3.73,3.73,0,0,1-2,.39h-1.58V38.13h1.63a3.65,3.65,0,0,1,2,.4A1.22,1.22,0,0,1,108.58,39.67Z"/><polygon class="cls-2" points="119.07 35.85 111.26 35.85 111.26 38.13 114.01 38.13 114.01 49.19 116.34 49.19 116.34 38.13 119.07 38.13 119.07 35.85"/><path class="cls-2" d="M126,43.4a10.26,10.26,0,0,0-2.26-2.14,11.85,11.85,0,0,1-1.8-1.5,1.25,1.25,0,0,1-.29-.84.91.91,0,0,1,.3-.73,1.4,1.4,0,0,1,1.74,0,5.09,5.09,0,0,1,.9,1l.33.45,1.84-1.43-.3-.42a6.35,6.35,0,0,0-1.59-1.63,3.59,3.59,0,0,0-2.06-.6,3.43,3.43,0,0,0-2.5,1,3.27,3.27,0,0,0-1,2.41,3.56,3.56,0,0,0,.25,1.32,3.6,3.6,0,0,0,.77,1.21A15,15,0,0,0,122.12,43a9.54,9.54,0,0,1,1.77,1.6,1.76,1.76,0,0,1,.45,1.08,1.38,1.38,0,0,1-.49,1.08,1.76,1.76,0,0,1-1.24.46c-.75,0-1.45-.58-2.07-1.73l-.27-.5-2,1.16.23.46a4.66,4.66,0,0,0,4.24,2.89,3.91,3.91,0,0,0,2.77-1.13,3.62,3.62,0,0,0,1.2-2.71A3.73,3.73,0,0,0,126,43.4Z"/><polygon class="cls-2" points="138.6 44.77 134.9 35.85 132.39 35.85 138.1 49.5 139.08 49.5 144.88 35.85 142.37 35.85 138.6 44.77"/><rect class="cls-2" x="145.4" y="35.85" width="2.31" height="13.34"/><path class="cls-2" d="M153.39,41.26a11.22,11.22,0,0,1-1.8-1.5,1.25,1.25,0,0,1-.3-.84,1,1,0,0,1,.31-.74,1.41,1.41,0,0,1,1.74,0,5.76,5.76,0,0,1,.9,1l.33.45,1.84-1.43-.3-.42a6.35,6.35,0,0,0-1.59-1.63,3.59,3.59,0,0,0-2.06-.6,3.45,3.45,0,0,0-2.51,1,3.27,3.27,0,0,0-1,2.41,3.54,3.54,0,0,0,.25,1.31,3.6,3.6,0,0,0,.77,1.21A16.13,16.13,0,0,0,151.8,43a9.54,9.54,0,0,1,1.77,1.6,1.76,1.76,0,0,1,.45,1.08,1.38,1.38,0,0,1-.49,1.08,1.76,1.76,0,0,1-1.24.46c-.75,0-1.45-.58-2.07-1.73L150,45l-2,1.17.23.45a4.66,4.66,0,0,0,4.24,2.89,3.91,3.91,0,0,0,2.77-1.13,3.62,3.62,0,0,0,1.2-2.71,3.75,3.75,0,0,0-.78-2.26A10.26,10.26,0,0,0,153.39,41.26Z"/><rect class="cls-2" x="157.76" y="35.85" width="2.31" height="13.34"/><path class="cls-2" d="M171.75,36.46a7.18,7.18,0,0,0-7,0A6.72,6.72,0,0,0,162.18,39a7.11,7.11,0,0,0-.92,3.54,6.82,6.82,0,0,0,.93,3.48,6.65,6.65,0,0,0,2.57,2.53,7.06,7.06,0,0,0,3.52.92,7,7,0,0,0,3.51-.93A6.83,6.83,0,0,0,174.34,46a7.06,7.06,0,0,0,.92-3.52,6.93,6.93,0,0,0-.93-3.51A6.7,6.7,0,0,0,171.75,36.46Zm1.15,6.06a4.64,4.64,0,1,1-9.28,0,4.62,4.62,0,0,1,1.32-3.35,4.39,4.39,0,0,1,3.29-1.36,4.66,4.66,0,0,1,4.67,4.7Z"/><polygon class="cls-2" points="185.05 44.33 177.7 35.85 176.64 35.85 176.64 49.19 178.98 49.19 178.99 40.83 186.29 49.19 187.35 49.19 187.35 35.85 185.05 35.85 185.05 44.33"/><path class="cls-3" d="M27.1,24.16c-1.44.69-2.71,1.32-3.77,1.85-2.21,1.12-3.51,1.81-3.51,1.81l3.81-1,3.62-1,.88-.24,11.79-3.15c-3.89,8.8-8.21,11.49-9.66,12.17a5.19,5.19,0,0,1-.5.21h0c-5.37.22-14.17-3.65-17.19-4.62L30.08,41.38C42.35,33.76,51.7,14,51.7,14A210.1,210.1,0,0,0,27.43,24Z"/><path class="cls-2" d="M29.6,30.9l-.18.05h0c-1.9-.09-4.88-1.73-5.92-2.16l5.84,4.48c4.56-2.3,8.48-9,8.48-9a74.37,74.37,0,0,0-8.88,2.76l-.11.05-1.39.53-1.3.53,1.38-.24,1.3-.22.32-.06,4.26-.74C31.74,29.89,30.13,30.7,29.6,30.9Z"/><path class="cls-3" d="M11.86,29.29c2.69-1.39,5.36-2.82,8.05-4.23,4.17-2.18,8.37-4.32,12.65-6.29,9.6-4.4,19.6-7.63,30.49-8.21-.67-.28-1.33-.59-2-.83A54.29,54.29,0,0,0,42.86,7.14a16.54,16.54,0,0,0-4.09.5A65,65,0,0,1,49.52,10,67,67,0,0,0,37.39,8a18.32,18.32,0,0,0-4.53,2.36c-.55.39-1.12.77-1.7,1.15,1.59-.09,3.27-.14,5-.16a87.74,87.74,0,0,1,9.87.52s-5.14-.05-8.05,0-5.73.22-8.19.49c-1.26.79-2.54,1.56-3.76,2.38s-2.36,1.55-3.53,2.38c2.82-.76,6.06-1.51,9.59-2.19a104.32,104.32,0,0,1,10.8-1.46s-5.59,1-8.74,1.59a91.83,91.83,0,0,0-13.9,3.8,18.23,18.23,0,0,0-1.72,1.68C16.15,23.27,11.25,29.6,11.86,29.29Z"/><path class="cls-3" d="M6.64,30.72c-.86,0-1.3.23-1.51.66l-.32-.06c-3.62-.7-3.84.71-3.53,2a.74.74,0,0,1,.89-.57c.38.06,1.61,1,3.72,2.08a18.69,18.69,0,0,1,4.75,3.33,18.1,18.1,0,0,1,5.88.68,39.58,39.58,0,0,1,5.86,2,41.72,41.72,0,0,0-6.57-1.77A12.52,12.52,0,0,0,11.4,39a15,15,0,0,1,1,1.43l1.31.27a51.76,51.76,0,0,1,12.12,4.56A50.56,50.56,0,0,0,17,42,26,26,0,0,0,13,41.37c.38.66.78,1.35,1.25,2.08l.08,0a52.77,52.77,0,0,1,7.37,2.24s-3.23-1-6.36-1.61c.31.2.66.45,1,.72a1.65,1.65,0,0,0,.37.2l1.05.41a30.72,30.72,0,0,1,3.94,1.94,10,10,0,0,0,1.17.48A2.19,2.19,0,0,0,25,47.57a4.23,4.23,0,0,0,.4-.34c1.45-1.41,6.15,0,7.27-.76L9.8,30.93A24.9,24.9,0,0,0,6.64,30.72Z"/></g></svg>