<svg xmlns="http://www.w3.org/2000/svg" viewBox="0 0 190 55"><defs><style>.cls-1{fill:#e16c7a;}.cls-2{fill:#f3b817;}.cls-3{fill:#568dea;}</style></defs><g id="Logos"><path class="cls-1" d="M144.75,43.53a8.06,8.06,0,0,1-8.06-8.06V7h5.52v28.5A2.54,2.54,0,0,0,144.75,38Z"/><rect class="cls-1" x="167.54" y="30.53" width="5.53" height="12.61"/><path class="cls-1" d="M159.57,44a13.5,13.5,0,1,1,13.5-13.5A13.51,13.51,0,0,1,159.57,44Zm0-21.47a8,8,0,1,0,8,8A8,8,0,0,0,159.57,22.56Z"/><polygon class="cls-2" points="92.28 43.14 85.03 43.14 74.55 30.77 74.48 30.7 74.55 30.64 78.7 27.12 92.28 43.14"/><rect class="cls-2" x="68.93" y="22.76" width="22.19" height="5.53" transform="translate(3.48 60.1) rotate(-42)"/><path class="cls-2" d="M115.18,24l-4.41,3.57-11.86,9.6-3.35,2.72-3.48-4.3,3.61-2.92L107,23.43l4.52-3.66A13.39,13.39,0,0,1,115.18,24Z"/><rect class="cls-2" x="69.02" y="6.97" width="5.53" height="36.18"/><path class="cls-2" d="M110,35l4.55,3.14A13.5,13.5,0,0,1,103.38,44h0a13.5,13.5,0,1,1,0-27h0A13.48,13.48,0,0,1,115.18,24l-4.41,3.57a7.93,7.93,0,0,0-7.38-5h0a8,8,0,0,0-8,8,8.1,8.1,0,0,0,.27,2.09,7.91,7.91,0,0,0,2.06,3.54,7.49,7.49,0,0,0,1.16,1A8,8,0,0,0,110,35Z"/><path class="cls-2" d="M133.18,43.53H129a8.35,8.35,0,0,1-8.34-8.34V9.69h5.53v25.5A2.82,2.82,0,0,0,129,38h4.15Z"/><rect class="cls-2" x="116.42" y="18.27" width="16.15" height="5.53"/><rect class="cls-3" x="58.86" y="30.53" width="5.53" height="12.61"/><path class="cls-3" d="M50.88,44a13.5,13.5,0,1,1,13.5-13.5A13.51,13.51,0,0,1,50.88,44Zm0-21.47a8,8,0,1,0,8,8A8,8,0,0,0,50.88,22.56Z"/><path class="cls-3" d="M35.25,43.53H31.09a8.35,8.35,0,0,1-8.34-8.34V9.69h5.53v25.5A2.82,2.82,0,0,0,31.09,38h4.16Z"/><rect class="cls-3" x="18.48" y="18.27" width="16.15" height="5.53"/><path class="cls-3" d="M19.73,34l-2.8-4.76c.34-.2.68-.4,1-.61a9.55,9.55,0,0,0,4.81-8.51h5.53a15.11,15.11,0,0,1-7.41,13.19Z"/></g></svg>