<svg xmlns="http://www.w3.org/2000/svg" viewBox="0 0 190 55"><defs><style>.cls-1{fill:#fff;}.cls-2{fill:#2492c7;}.cls-3{fill:#2369a6;}.cls-4{fill:#433c3a;}.cls-5{fill:#5c5858;}</style></defs><g id="橫式"><rect class="cls-1" x="21.3" y="13.02" width="44" height="29.02" rx="2.78"/><path class="cls-2" d="M23.37,5.5H63.23A2.07,2.07,0,0,1,65.3,7.57V26.35H56.73l-3.9,9L47.1,21.54,41.56,34.28H21.3V7.57A2.08,2.08,0,0,1,23.37,5.5"/><path class="cls-2" d="M65.3,28.26V47.43a2.07,2.07,0,0,1-2.07,2.07H23.37a2.07,2.07,0,0,1-2.07-2.07V36.18H43.09l3.9-9L52.73,41l5.54-12.73Z"/><path class="cls-3" d="M84.85,15.19H77.58V29.52H75.47V8.37h9.38Zm-2-5.26H77.58V11h5.28Zm-5.28,3.71h5.28V12.42H77.58Zm6,1.91-1.25,1.29a15,15,0,0,1-1.14,1l1,0,.94,0a8.19,8.19,0,0,0,.67-.53l.45-.48,1.53.48a19,19,0,0,1-4.5,3.3l1.32,0,1.17-.07-.14-.36-.17-.41,1.32-.17a21.68,21.68,0,0,1,.88,2.49l-1.55.26-.07-.52L81.45,22l-2.75.07-.33-1.51.72.07.45-.21a17.2,17.2,0,0,0,2.18-1.2A3,3,0,0,1,82,19l-1.41.05-1.53,0-.29-1.42.67.05.45-.4a12.48,12.48,0,0,0,2-2.13ZM80.47,29.24l-1-1.65c2.25-.21,3.45-.82,3.61-1.82H79.2v-2.9H81v1.41h2.18V22.66H85v2.53q0,3.25-4.57,4M90,15.58a13.15,13.15,0,0,1-1.1,1.24l-1.15,1.1H90l.52-.48.46-.5,1.55.55a18.23,18.23,0,0,1-3.73,3.11l-.36.22,1.44-.1A3.21,3.21,0,0,0,91,20.58l-.17-.32-.19-.43,1.27-.28.55,1.24c.06.18.18.54.36,1.1a2.09,2.09,0,0,0,.09.27l-1.41.33-.19-.62-2.58.21-2.49.1-.41-1.46h.58l.45-.26a5.92,5.92,0,0,0,.79-.53L88.82,19l-1.6.1-1.43,0-.34-1.34.53,0a12.59,12.59,0,0,0,2.27-2.56ZM88.3,22.66v2h2V22.87h1.8v3.3H88.3v3H86.43V22.66Zm2.89,4.52,2,.12c.54,0,.81-.25.81-.74V15.19H86.48V8.37H96.1V27.13a2.47,2.47,0,0,1-.45,1.59,2.2,2.2,0,0,1-1.8.56H91.91ZM88.49,11H94V9.93h-5.5ZM94,12.42h-5.5v1.22H94Z"/><path class="cls-3" d="M106.12,27.37a38,38,0,0,1-7,1.72L98.89,27l1.9-.29,1.41-.26v-7.3H99.09v-1.8h3.11V15.31h-2V14.09l-.74.79-.81-2c.26-.28.47-.5.65-.67a14.72,14.72,0,0,0,2.94-4.6h1.91l1.44,2.06,1.58,2.22-1.46,1.35-1.27-2-1.1-1.68a12.25,12.25,0,0,1-2.56,3.92h5.29v1.82h-2v2.08h2.25v1.8h-2.25V26.1l1.06-.31,1.22-.36v1.75A10.63,10.63,0,0,0,108,24.86c0-.1.13-.22.22-.38a20.18,20.18,0,0,1-.86-2.42l-.69-2.46,1.5-.55.41,1.38a14.09,14.09,0,0,0,.57,1.8,13.52,13.52,0,0,0,.43-2.68l.2-2.32H107.2V15.74A19.33,19.33,0,0,0,109.09,11c0-.22.11-.49.19-.81h-2.63V8.54h4.45v1.53l-.24,1a20,20,0,0,1-1.53,4.5h2.27V17a21.71,21.71,0,0,1-1.29,7.49,5.43,5.43,0,0,0,4.33,2.3v-2.2h-3V22.8h3V21.17H112V19.43h2.63V18H112v-1.7h2.63V14.45h-3.25V12.8h3.25V11H112V9.31h2.63V7.54h1.79V9.31h3.26V12.8h1v1.65h-1V18h-3.26v1.44h3.69v1.75h-3.69V22.8h3.88v1.75h-3.88v2.34h1.87a13.27,13.27,0,0,0,2.42-.19l-.39,2h-3.54a14.86,14.86,0,0,1-4.54-.56,6.13,6.13,0,0,1-2.85-2,16.54,16.54,0,0,1-2.8,3.39l-1-1.62Zm-6.08-2L99.78,23c-.14-1.2-.25-2-.33-2.35l1.53-.21.38,2.25c0,.36.13,1,.24,1.93a3.26,3.26,0,0,0,.05.48Zm6.51-5-.09,2c-.07.76-.16,1.45-.27,2.08l-1.53-.2c0-.14,0-.26,0-.35q.2-1.11.24-1.68l.14-1.91ZM118,11h-1.56V12.8H118Zm0,3.44h-1.58v1.84H118Z"/><path class="cls-4" d="M130.86,12.27h-8.28v-2h3.28l-.41-1.22c-.19-.46-.39-.89-.59-1.27L127,7.51l.19.39a17.86,17.86,0,0,1,.87,2.39h2.77Zm-7.73,1.58h7.3v1.87h-7.3Zm0,3.52h7.3v1.84h-7.3Zm.07,3.73h7.28v8.19h-2V28.21h-3.2v1.31h-2Zm5.24,1.82h-3.2v3.47h3.2Zm10.63-2.75h5.55v2.08h-5.55v7.28h-2.18V22.25h-5.53V20.17h5.53V10.43H131.7V8.35h12.61v2.08h-5.24Zm-5.63-1.75c-.09-.41-.17-.75-.24-1a32.06,32.06,0,0,0-1.41-5l2-.55c.46,1.18.78,2.12,1,2.8l.88,3.18Zm10.75-6.12a41.22,41.22,0,0,1-2,6.29l-2-1a35.57,35.57,0,0,0,1.77-4.83c.06-.25.16-.59.29-1Z"/><path class="cls-4" d="M146.51,12.23v-2h2.92L149,9.19a7.58,7.58,0,0,0-.62-1.39l2.06-.29A6.44,6.44,0,0,1,151.1,9l.43,1.27H154v2Zm.72,1.55h6.34V15.7h-6.34Zm0,3.52h6.22v1.89h-6.22Zm6.19,12h-1.91V28.16h-2.3v1.37H147.3V21.06h6.12Zm-1.91-6.42h-2.3v3.45h2.3Zm5.38-9.49-.28.21A5.91,5.91,0,0,1,156,14l-1.08.65-1.19-2a15.13,15.13,0,0,0,3.29-2A14.38,14.38,0,0,0,160,7.63h2.27a21.48,21.48,0,0,0,6.24,4.72l-.86,2.08a2.65,2.65,0,0,0-.33-.17c-.29-.14-.53-.27-.72-.38l-1-.58v1.49h-8.78Zm7,15.12h-1.91v-5h-1.55v5H158.5v-5H157v6h-2V16.46h12.56V26.87a3.17,3.17,0,0,1-.44,1.83,2.14,2.14,0,0,1-1.81.61H164ZM158.5,18.33H157v3.3h1.54Zm6.38-5.55a22.85,22.85,0,0,1-3.66-3.26,18.36,18.36,0,0,1-3.51,3.26Zm-2.94,5.55h-1.55v3.3h1.55Zm3.61.05h-1.7v3.27h1.7Zm-.55,9c.37,0,.55-.2.55-.6V23.52h-1.7V27.3Z"/><path class="cls-5" d="M77.27,36.54l1,.51A13.19,13.19,0,0,1,74.77,42l-.81-1a12.92,12.92,0,0,0,2.12-2.27,12.8,12.8,0,0,0,1.19-2.12m5.89,4.23c-.1,3.19-.3,5.06-.58,5.58A1.33,1.33,0,0,1,82,47a5.35,5.35,0,0,1-1.85.19h-.6L79.19,46l1.83,0q.53,0,.69-.72A26,26,0,0,0,82,41.84H79.23a8.29,8.29,0,0,1-.86,2.53,7,7,0,0,1-1.74,2.05,4.66,4.66,0,0,1-1.37.94l-.77-1a7.28,7.28,0,0,0,2.51-2,5.92,5.92,0,0,0,1-2.53H76.11V40.77Zm-1.29-4.12a16.68,16.68,0,0,0,1.39,2.26A17.24,17.24,0,0,0,85,40.81l-.95.91a16.06,16.06,0,0,1-2.8-4H79V36.65Z"/><path class="cls-5" d="M92.66,44.28h4.27v1.06H92.35V46a1.36,1.36,0,0,1-.27,1,1.57,1.57,0,0,1-1.08.26H89.29l-.24-1.08,1.7,0c.26,0,.39-.12.39-.37v-.51H85.91V44.28h5.22v-.44l1-.26,1.37-.41H86.82v-1h8.84v.92a16.42,16.42,0,0,1-2.58,1.08l-.42.14m-6.61-6v-1h4.57l-.17-.32-.24-.4,1.31-.15.26.45.2.42H96.8v1Zm1.17.59h8.46v2.68H87.22Zm7.25.91h-6v.85h6Z"/><path class="cls-5" d="M103.67,46.89H99.61v.49h-.93v-4l-.19.26-.27.31-.32-1.11A5.29,5.29,0,0,0,99.16,41l.93.12-.25.55h1.35l-.15-.34-.19-.34.35-.15V38.71h.59V38h-.67v-.81h.67v-.85h.9v.85h1.25V38h-1.25v.67h1V41h-1.89l.17.35.14.36h1.66v.79h-1.64v.62h1.52v.72h-1.52v.72h1.52v.7h-1.52v.84h1.67v.18A3.23,3.23,0,0,0,105,43.71h-.66v-7h4.09v7h-1.14v2.17a.68.68,0,0,0,.07.4c0,.06.16.09.33.09s.32-.21.32-.63V44.58l.86.29,0,1.24c0,.74-.41,1.11-1.22,1.11a1.48,1.48,0,0,1-1-.25,1.18,1.18,0,0,1-.25-.87V43.71h-.46a4.73,4.73,0,0,1-1.72,3.67Zm-3-8.18V41H98.24V38.71h1V38h-1.3v-.81h1.3v-.85h.9v.85h.73V38h-.73v.67Zm-.82.68h-.84v.91h.84Zm1.34,3.09H99.61v.62h1.63Zm0,1.34H99.61v.72h1.63Zm0,1.42H99.61v.84h1.63Zm1.66-5.85H102v.91h.87Zm4.51-1.78h-2.14v1h2.14Zm-2.14,3.06h2.14V39.51h-2.14Zm0,2.12h2.14V41.53h-2.14Z"/><path class="cls-5" d="M112.64,42.74h-2.25v-.9h2.25v-.7h-2.36V36.68h5.66v4.46h-2.4v.7h2.29v.9h-2.29v.73l1.35-.09a4.7,4.7,0,0,0,1.08-.12v.88l-2.84.23a20.55,20.55,0,0,0-3,.17l-.21-1h1.18l1.58-.05ZM111.43,45c0,.16-.05.31-.07.42a8,8,0,0,1-.6,2l-.88-.38a6.92,6.92,0,0,0,.71-2.13Zm-.3-4.7h1.51V37.55h-1.51Zm.23-2.08.55-.16.24.74c0,.19.12.43.18.74,0,0,0,.1,0,.17l-.62.19-.15-.83a6.31,6.31,0,0,0-.23-.85m.5,9a12.9,12.9,0,0,0,0-2.27l.82-.06a5.48,5.48,0,0,1,.1,1.05c0,.64,0,1,0,1.18Zm1.73-.2a10.45,10.45,0,0,0-.32-2.11l.78-.12a10.93,10.93,0,0,1,.41,2Zm0-6.76h1.55V37.55h-1.55Zm.56-1.49.16-.79.57.15-.14.91a5.12,5.12,0,0,1-.2.84l-.65-.2.09-.28a4.43,4.43,0,0,0,.17-.63m1.14,7.92-.06-.3c-.05-.22-.11-.44-.18-.65l-.33-1,.71-.17A9.41,9.41,0,0,1,116,46.4Zm2.42-5.09V36.38h1.06v2h2.14v1h-2.14v2.26h1.7v5.76h-1v-.82h-2.05v.82h-1V41.62Zm1.74,1h-2.05v3h2.05Z"/><path class="cls-5" d="M121.84,42.5a5.1,5.1,0,0,0,1.1-1.15A10,10,0,0,0,124,39.6l1,.58-.35.62-.38.64v5.94H123.2V42.81l-.43.49a4.21,4.21,0,0,1-.6.59Zm3.47-5.26a22.5,22.5,0,0,1-2.75,2.7l-.6-1.06a12.26,12.26,0,0,0,2.38-2.29Zm4.25,3.36v1.53h2.56v1.08h-2.56v2.63a11.19,11.19,0,0,0,1.37.1h.12l1.76,0L132.62,47H131.5a8.78,8.78,0,0,1-3.39-.42,5.11,5.11,0,0,1-1.62-1.49l-.4,1a8.82,8.82,0,0,1-.61,1.18l-.85-.91a12,12,0,0,0,1.56-5.52l1.09,0a14.42,14.42,0,0,1-.38,2.93,3.68,3.68,0,0,0,1.57,1.71v-5Zm.76-4a1.45,1.45,0,0,0,.06-.19l1.09.25-.06.24a10.59,10.59,0,0,1-.47,1.33l1,.66.85.59-.69,1.05a17.75,17.75,0,0,0-1.61-1.34,7.42,7.42,0,0,1-.95,1.29l-.69-1-.57.86-.72-.8a2.51,2.51,0,0,0-.36-.34L127,39a.88.88,0,0,0-.07.12,10,10,0,0,1-.92,1.17l-.12.13-.89-.82a5.28,5.28,0,0,0,1.15-1.24,7.9,7.9,0,0,0,.77-2l1.05.17-.19.77a5.07,5.07,0,0,1-.25.71l.75.62.69.61a5.92,5.92,0,0,0,1.39-2.68"/><path class="cls-5" d="M134.11,42.23A14.18,14.18,0,0,0,135.7,40h-1.84V39h3v.85a17.22,17.22,0,0,1-1.3,2.08l-.15.19h1.43v.69a5.81,5.81,0,0,1-.19.84l-.29.89a2.61,2.61,0,0,0,1.44,1.23,14.9,14.9,0,0,0,3.62.28c1,0,1.87,0,2.75-.07l.57,0-.19,1.11h-2.87a17.32,17.32,0,0,1-4.29-.32,3.21,3.21,0,0,1-1.55-1.23,8.84,8.84,0,0,1-1.34,1.83l-.76-.84a7.36,7.36,0,0,0,2-3.42h-1.68Zm1.64-3.45a13.63,13.63,0,0,0-1.7-1.59l.7-.69a11.45,11.45,0,0,1,1.6,1.31l.14.15Zm5.11-2.4,0,.08a6.18,6.18,0,0,1,.37.81.77.77,0,0,0,0,.17h3.34v1h-7.51v-1h3L140,37a2.12,2.12,0,0,0-.27-.49Zm-3,2.68h6.27V40h-6.27Zm0,1.6h6.27v1h-6.27Zm.15,1.65H144v2.87H138Zm5,.95H139v1H143Z"/><path class="cls-5" d="M150.77,40.77h-3.62v6.61h-1.1V36.76h4.72Zm-1.07-3.12h-2.55v.71h2.55Zm-2.55,2.22h2.55v-.76h-2.55Zm5.78,3.69h1.7v.94h-1.7v2.55h-1V44.5h-1.39a3.16,3.16,0,0,1-1.9,2.66l-.82-.76.27-.14a2.34,2.34,0,0,0,1.4-1.76h-1.72v-.94h1.8V42.35h-1.44v-.92h6.14v.92h-1.34Zm-1-1.21h-1.36v1.21h1.36Zm3,3.85c.27,0,.41-.12.41-.37V40.77h-3.66v-4h4.76v9.36a1,1,0,0,1-1.12,1.1H154l-.27-1.07Zm-2.2-7.84h2.61v-.71h-2.61Zm2.61.75h-2.61v.76h2.61Z"/><path class="cls-5" d="M159.19,38.56l.13-1.05.11-1.11,1.06,0-.12,1.17-.12,1h1.92v.81a16.66,16.66,0,0,1-1,4.72,10.18,10.18,0,0,1,1.28,1.2l-.71.9-.57-.62-.53-.52a9.82,9.82,0,0,1-1.89,2.18l-.91-.77a7.42,7.42,0,0,0,2-2.09l-.84-.66L158,43a21.45,21.45,0,0,0,1-3.46h-1.32v-1Zm.56,4.48a3.64,3.64,0,0,1,.51.4,14.83,14.83,0,0,0,.81-3.51c0-.09,0-.21,0-.36h-1l-.34,1.5q-.25.95-.51,1.62Zm7-5.12.32.47a21.68,21.68,0,0,1,1.6,2.85l-1,.58-.2-.48-.23-.44a11.43,11.43,0,0,1-2.46.29,20.82,20.82,0,0,0-2.55.15l-.13-1.13.35,0h.32a19.37,19.37,0,0,0,1.51-3.82l1.18.17c-.09.25-.16.45-.21.61a20.25,20.25,0,0,1-1.25,3l1.39-.1c.7-.07,1.16-.13,1.37-.17l-.43-.77c-.2-.36-.38-.65-.53-.87Zm-4.15,4.35H168v5.12h-1.06v-.64H163.7v.63h-1.07Zm4.31,1H163.7v2.45h3.24Z"/></g></svg>