<svg xmlns="http://www.w3.org/2000/svg" xmlns:xlink="http://www.w3.org/1999/xlink" viewBox="0 0 190 55"><defs><style>.cls-1{fill:#2a275c;}.cls-2{fill:url(#linear-gradient);}</style><linearGradient id="linear-gradient" x1="70.35" y1="3.85" x2="70.35" y2="49.71" gradientUnits="userSpaceOnUse"><stop offset="0" stop-color="#4db8b8"/><stop offset="0.25" stop-color="#32b6d0"/><stop offset="0.5" stop-color="#46a0d8"/><stop offset="0.75" stop-color="#445ca3"/><stop offset="1" stop-color="#5e4491"/></linearGradient></defs><g id="橫式"><path class="cls-1" d="M76.06,15.85v14.8H72.84V15.85H68.63V12.79H80.27v3.06Z"/><path class="cls-1" d="M93,30.65,86.19,19.19,86,18.43V30.65H82.82V12.79h2.83l6.82,11.45.15.77V12.79h3.21V30.65Z"/><path class="cls-1" d="M99.66,30.65V12.79h3.22v14.8h6.58v3.06Z"/><path class="cls-1" d="M74.84,38.77A3.9,3.9,0,0,1,78,37.14h1.44v3H77a1.4,1.4,0,0,0-1.44,1.44v8.19h-3V37.38H74Z"/><path class="cls-1" d="M88.05,45.25l3,.29v0a4.33,4.33,0,0,1-4.46,4.48h-.75a4.33,4.33,0,0,1-4.46-4.48v-4a4.33,4.33,0,0,1,4.46-4.48h.75A4.33,4.33,0,0,1,91,41.62v2.53H84.37v1.51a1.46,1.46,0,0,0,1.46,1.47h.75a1.47,1.47,0,0,0,1.47-1.47Zm-3.68-3h3.68v-.76a1.47,1.47,0,0,0-1.47-1.46h-.75a1.46,1.46,0,0,0-1.46,1.46Z"/><path class="cls-1" d="M103.59,46.32c0,2.15-1.83,3.73-4.41,3.73h-.73a4.27,4.27,0,0,1-4.51-4.24v-.07l3-.25V46a1.25,1.25,0,0,0,1.34,1.29H99.4a1.07,1.07,0,0,0,1.17-1c0-2.24-6.48-.31-6.48-5.4,0-2.15,1.83-3.73,4.41-3.73h.44a4.22,4.22,0,0,1,4.5,4.19v.07l-3,.29v-.46a1.28,1.28,0,0,0-1.34-1.29H98.3a1.11,1.11,0,0,0-1.22,1C97.08,43.11,103.59,41.23,103.59,46.32Z"/><path class="cls-1" d="M113.07,45.25l3,.29v0a4.33,4.33,0,0,1-4.46,4.48h-.75a4.33,4.33,0,0,1-4.46-4.48v-4a4.33,4.33,0,0,1,4.46-4.48h.75a4.33,4.33,0,0,1,4.46,4.48v2.53h-6.67v1.51a1.47,1.47,0,0,0,1.46,1.47h.75a1.47,1.47,0,0,0,1.47-1.47Zm-3.68-3h3.68v-.76a1.47,1.47,0,0,0-1.47-1.46h-.75a1.47,1.47,0,0,0-1.46,1.46Z"/><path class="cls-1" d="M126.37,48.47a3.9,3.9,0,0,1-3.32,1.58h0c-2.49,0-4-1.46-4-3.48v-.49c0-2,1.53-3.44,4-3.44h2.6V41.35a1.39,1.39,0,0,0-1.46-1.29h-.58a1.4,1.4,0,0,0-1.47,1.29v.47l-3-.3v-.07a4.27,4.27,0,0,1,4.46-4.31h.58a4.28,4.28,0,0,1,4.46,4.31v8.36h-1.39ZM122,46.1a1.2,1.2,0,0,0,1.27,1.17h1.12a1.24,1.24,0,0,0,1.24-1.14V44.86h-2.36A1.2,1.2,0,0,0,122,46Z"/><path class="cls-1" d="M134.16,38.77a3.92,3.92,0,0,1,3.15-1.63h1.43v3h-2.41a1.4,1.4,0,0,0-1.44,1.44v8.19h-3V37.38h1.39Z"/><path class="cls-1" d="M147.37,45.08l3,.29v.2a4.33,4.33,0,0,1-4.45,4.48h-.76a4.33,4.33,0,0,1-4.46-4.48v-4a4.33,4.33,0,0,1,4.46-4.48h.76a4.33,4.33,0,0,1,4.45,4.48v.2l-3,.29v-.59a1.47,1.47,0,0,0-1.46-1.46h-.76a1.47,1.47,0,0,0-1.46,1.46v4.14a1.47,1.47,0,0,0,1.46,1.47h.76a1.47,1.47,0,0,0,1.46-1.47Z"/><path class="cls-1" d="M156.29,32.75v5.48a3.73,3.73,0,0,1,2.65-1.09H159c2.68,0,4.21,1.63,4.21,4.46v8.21h-3V41.5a1.4,1.4,0,0,0-1.44-1.44H158a1.4,1.4,0,0,0-1.44,1.44v8.31h-3V32.75Z"/><path class="cls-2" d="M67.63,42.1l-8.24-8.25a1.73,1.73,0,0,0-2.46,0,10.1,10.1,0,0,1-14.58-14,9.48,9.48,0,0,1,5.09-2.94,10.05,10.05,0,0,1,11,4.8A9.92,9.92,0,0,1,59.75,28a1.84,1.84,0,0,0,.52,1.51h0a1.83,1.83,0,0,0,3.11-1.08,13.76,13.76,0,1,0-5.31,9.25l6.44,6.44A1.1,1.1,0,0,1,63.73,46H49.84c-9.66,0-18.43-7.86-19.29-17.48a19.28,19.28,0,0,1,19.18-21H112a1.87,1.87,0,0,0,1.89-1.81,1.84,1.84,0,0,0-1.84-1.86H49.69A22.89,22.89,0,0,0,26.8,26.74v.08A22.89,22.89,0,0,0,49.69,49.71H64.27A4.55,4.55,0,0,0,67.63,42.1Z"/></g></svg>