<svg xmlns="http://www.w3.org/2000/svg" xmlns:xlink="http://www.w3.org/1999/xlink" viewBox="0 0 190 55"><defs><style>.cls-1{fill:#2b2422;}.cls-2{fill:url(#linear-gradient);}.cls-3{fill:url(#linear-gradient-2);}.cls-4{fill:url(#linear-gradient-3);}.cls-5{fill:url(#linear-gradient-4);}.cls-6{fill:url(#linear-gradient-5);}.cls-7{fill:url(#linear-gradient-6);}.cls-8{fill:url(#linear-gradient-7);}.cls-9{fill:url(#linear-gradient-8);}.cls-10{fill:url(#linear-gradient-9);}.cls-11{fill:url(#linear-gradient-10);}.cls-12{fill:url(#linear-gradient-11);}.cls-13{fill:url(#linear-gradient-12);}.cls-14{fill:url(#linear-gradient-13);}.cls-15{fill:url(#linear-gradient-14);}</style><linearGradient id="linear-gradient" x1="51.36" y1="46.9" x2="51.36" y2="7.3" gradientUnits="userSpaceOnUse"><stop offset="0" stop-color="#f7e327"/><stop offset="0.06" stop-color="#f7e022"/><stop offset="0.36" stop-color="#f6d50f"/><stop offset="0.67" stop-color="#f5ce04"/><stop offset="1" stop-color="#f5cc00"/></linearGradient><linearGradient id="linear-gradient-2" x1="80.35" y1="46.9" x2="80.35" y2="7.3" xlink:href="#linear-gradient"/><linearGradient id="linear-gradient-3" x1="110.17" y1="46.9" x2="110.17" y2="7.3" xlink:href="#linear-gradient"/><linearGradient id="linear-gradient-4" x1="139.19" y1="46.9" x2="139.19" y2="7.3" xlink:href="#linear-gradient"/><linearGradient id="linear-gradient-5" x1="40.99" y1="46.9" x2="40.99" y2="7.3" xlink:href="#linear-gradient"/><linearGradient id="linear-gradient-6" x1="53.59" y1="46.9" x2="53.59" y2="7.3" xlink:href="#linear-gradient"/><linearGradient id="linear-gradient-7" x1="65.26" y1="46.9" x2="65.26" y2="7.3" xlink:href="#linear-gradient"/><linearGradient id="linear-gradient-8" x1="77.09" y1="46.9" x2="77.09" y2="7.3" xlink:href="#linear-gradient"/><linearGradient id="linear-gradient-9" x1="89.66" y1="46.9" x2="89.66" y2="7.3" xlink:href="#linear-gradient"/><linearGradient id="linear-gradient-10" x1="107.23" y1="46.9" x2="107.23" y2="7.3" xlink:href="#linear-gradient"/><linearGradient id="linear-gradient-11" x1="120.09" y1="46.9" x2="120.09" y2="7.3" xlink:href="#linear-gradient"/><linearGradient id="linear-gradient-12" x1="132.36" y1="46.9" x2="132.36" y2="7.3" xlink:href="#linear-gradient"/><linearGradient id="linear-gradient-13" x1="140.5" y1="46.9" x2="140.5" y2="7.3" xlink:href="#linear-gradient"/><linearGradient id="linear-gradient-14" x1="149.88" y1="46.9" x2="149.88" y2="7.3" xlink:href="#linear-gradient"/></defs><g id="æ©«å¼"><path class="cls-1" d="M80,34.54h6.18l9.15-10.8h.73L94.12,34.63h8.32l1.15-6.49H104L103.69,30h5.46l-.83,4.66h8l.83-4.66h5.21L124,34.63h15.47l2-1.28L143,34.63h12l-7-5.61,4.35-2.83.65-3.66h.24l2.81-15.82h-5.94l.22-1.21h-8l-.17,1h-3.51l-.37.76h-1.25l.3-1.71h-8.22l-.71,4h-1.95l-1.06,6h2l-.9,5.1-2.1,1.18-1.24,7h-.39l3.42-19.27h-5.4l.7-4h-8l-.7,4H109.3l.18-1h-2.13l-.28-2.89H99l0,0H88.73L86.38,8.39l.47-2.65h-18L67,15.8h-.62l-1,5.82h1.06l-.82,4.65-.9,2.63H62.68l1.62-9.14h1l1.88-10.6h-.71L67,5.8H39.61L39,9.16h-.56l-1.88,10.6h1l-2,11.09h9l-.66,3.75H61.43l2.74-4.05-1.36,4H80Zm53.61-7.63,2.27,1.88-2.94,1.9Zm-8.39,1-.15.84h-1.38Zm-28-13.5h1.91L94,22.59H90.32ZM82.9,26.33l.22-1.23H84ZM98.69,8.42H97.36l-1,5.61H91.92l6.55-7.85Z"/><polygon class="cls-1" points="43.42 35.88 43.41 35.83 43.39 35.88 41.2 35.88 33.82 49.41 39.99 49.41 40.8 47.77 41.51 47.77 41.65 49.41 47.34 49.41 45.35 35.88 43.42 35.88"/><path class="cls-1" d="M59.05,42.26l-.25,1.33a7.31,7.31,0,0,1-1.95,4.25A5.68,5.68,0,0,1,52.8,49.5a4.54,4.54,0,0,1-4.9-4.6,13.21,13.21,0,0,1,.33-2.56c.5-2.52.82-3.67,2-4.86a5.68,5.68,0,0,1,4.13-1.69,4.67,4.67,0,0,1,4.88,4.56A9.62,9.62,0,0,1,59.05,42.26Z"/><polygon class="cls-1" points="69.93 41.12 70.52 41.12 71.56 35.88 61.68 35.88 58.96 49.41 68.95 49.41 69.99 44.17 69.32 44.17 69.93 41.12"/><polygon class="cls-1" points="78.31 35.88 77.98 37.52 77.31 35.88 72.98 35.88 70.26 49.41 75.86 49.41 76.19 47.77 76.86 49.41 81.19 49.41 83.91 35.88 78.31 35.88"/><polygon class="cls-1" points="83.88 41.13 86.38 41.13 84.72 49.41 90.32 49.41 91.97 41.13 94.35 41.13 95.43 35.88 84.95 35.88 83.88 41.13"/><polygon class="cls-1" points="109.71 35.88 107.85 38.51 107.09 35.88 102.39 35.88 99.67 49.41 105.26 49.41 105.78 46.85 106.99 46.85 106.48 49.41 112.08 49.41 114.79 35.88 109.71 35.88"/><path class="cls-1" d="M120.88,35.79a5.83,5.83,0,0,0-4,1.66c-1.31,1.31-1.65,3-2,4.89a14.3,14.3,0,0,0-.33,2.56,4.56,4.56,0,0,0,4.83,4.6,5.81,5.81,0,0,0,4-1.66c1.31-1.3,1.65-3,2-4.89h0a14.52,14.52,0,0,0,.34-2.56A4.56,4.56,0,0,0,120.88,35.79Z"/><polygon class="cls-1" points="139.09 35.88 139.06 35.88 132.98 35.88 132.14 37.65 131.98 35.88 126.43 35.88 127.96 49.41 132.19 49.41 139.05 35.94 136.34 49.41 141.94 49.41 144.66 35.88 139.09 35.88"/><polygon class="cls-1" points="155.13 41.12 156.18 35.88 146.29 35.88 143.57 49.41 153.57 49.41 154.61 44.17 153.94 44.17 154.54 41.12 155.13 41.12"/><path class="cls-2" d="M58.93,18.21l.89-5h-4.9l-.87,4.87H48.48l.86-4.87h-5l-.86,5h-5.1l1.33-7.5h10l.16-.88H40.47l.43-2.48H65.19l-.44,2.48H55.52l-.16.88h10L64,18.21ZM60.6,33.05H45.76l.66-3.75h-9l1.67-9.38h9l.21-1.18h5.55l-.21,1.18H62.7L61,29.3H52l-.2,1.15H62.36ZM44.51,16l.33-1.86h3.74L48.25,16ZM44,18.65l.33-1.83h3.75l-.33,1.83Zm3.63,3.66h-3.6l-.2,1.12h3.6Zm-.6,3.39h-3.6l-.2,1.15h3.6Zm9.75-3.39h-3.6L53,23.43h3.6Zm-.6,3.39h-3.6l-.2,1.15H56ZM55,16l.33-1.86H59L58.64,16Zm-.47,2.66.33-1.83h3.68l-.32,1.83Z"/><path class="cls-3" d="M89.13,15H83.64l-.21,1.21H78.35l0,1.18h5.46l-.49,2.72H67.24l.48-2.72H73l0-1.18H68.55l1.58-8.88H85L83.81,14l5.66-7h6.26Zm-1.64,8.59H81.82l-.58,3.27H76.67L75.57,33H70.32l-.4-1.92L69.23,33H65l1.85-5.43h4.22l-.85,2.63h1l.6-3.37H67.1l1.07-6H82.3l-.35,2,6.16-7.23h6.08ZM79.41,9.88H74.8l-.14.8h4.61Zm-.52,2.9h-4.6l-.14.79h4.6ZM77,23.28H72.6l-.2,1.12h4.4ZM85.46,33H79.29l.56-.68H77l.09-4.69h4.17l-.12,3.16,5.63-6.64H93Z"/><path class="cls-4" d="M103.09,26.59l1-8.26-.39.56-2.52,14.19H96l1.94-10.89H96.08l5.85-9.35H98.15L98.66,10h1.74l-.28-2.89h5.54L106,10h1.68L107,13.6,104.26,18h2.1l-1,8.62Zm12.78,1.83L115,33.08h-4.87l.83-4.66h-5.46L108.63,11h5.46l.7-4h4.87l-.7,4h5.4l-3.09,17.41Zm-2.29-14.55h-1.33l-.78,4.43h1.32Zm-1.29,7.26H111l-.78,4.43h1.33Zm7.49-7.26h-1.33l-.79,4.43H119Zm-1.29,7.26h-1.33l-.78,4.43h1.32Z"/><path class="cls-5" d="M133,21.72l-2,11.36h-5.87l-.95-2.8h2.25l.94-5.32-2.09,1.16.6-3.4,2.1-1.18,1.35-7.64h-2l.51-2.86h2l.71-4h5.07l-.71,4h1.33l-.51,2.86h-1.32l-.79,4.43,1.51-.86-.59,3.36Zm10.59,11.36-2-1.65L139,33.08H132.1L138.5,29l-3.92-3.25h6.91l.91.71,2-1.36H133.76l.5-2.83H141l.22-1.24h-6.11L137.3,8.76h2L139.7,8h3.84l.17-1h4.84l-2,11.1h1.89l.37-2.1h-1.33l.47-2.62h1.32l.43-2.39H148.4l.49-2.78h5.38L152,21h-5.87l-.22,1.24h5.63l-.54,3-5.57,3.63,5.19,4.19Zm-.24-23.76-.89,2h-1.36l-.37,2.1H142l-.47,2.62h-1.3l-.37,2.1h1.89Z"/><path class="cls-6" d="M43.07,47.86l-.15-1.64H39.83L39,47.86h-2.6l5.69-10.43H44l1.54,10.43Zm-.66-6.69-1.58,3.07h1.9Z"/><path class="cls-7" d="M55.29,40.71c0-.73-.39-1.23-1.06-1.23a1.57,1.57,0,0,0-1.1.47c-.48.48-.63,1.16-1,2.7a12.49,12.49,0,0,0-.28,2.06A1,1,0,0,0,53,45.81a1.88,1.88,0,0,0,1.74-1.67l0-.22H53.26l.38-2h3.9l-.26,1.4a5.86,5.86,0,0,1-1.53,3.45,4.16,4.16,0,0,1-3,1.2,3,3,0,0,1-3.35-3.05,12,12,0,0,1,.3-2.25c.5-2.51.76-3.24,1.59-4.08a4.21,4.21,0,0,1,3-1.23,3.15,3.15,0,0,1,3.34,3.37Z"/><path class="cls-8" d="M69.24,39.57H65l-.39,2h3.7l-.42,2.14H64.13l-.41,2H68.1l-.42,2.14H60.85L63,37.43h6.72Z"/><path class="cls-9" d="M79.92,47.86h-2l-2.21-5.42-1.1,5.42H72.15l2.1-10.43h2l2.23,5.44,1.08-5.44H82Z"/><path class="cls-10" d="M93.09,39.58H90.7l-1.65,8.28H86.61l1.66-8.28H85.78l.44-2.15h7.31Z"/><path class="cls-11" d="M110.81,47.86h-2.44l1-5.14-1.86,2.58H106l-1-2.58-1,5.14h-2.43l2.1-10.43h2.27l1.33,4.6,3.25-4.6h2.39Z"/><path class="cls-12" d="M123.86,42.65c-.37,1.81-.65,3.13-1.61,4.1a4.31,4.31,0,0,1-3,1.2A3,3,0,0,1,116,44.9a13.1,13.1,0,0,1,.3-2.25c.37-1.82.65-3.14,1.61-4.11a4.35,4.35,0,0,1,3-1.2,3,3,0,0,1,3.29,3A13.58,13.58,0,0,1,123.86,42.65Zm-3.18-3.17a1.48,1.48,0,0,0-1.06.5c-.32.35-.51.89-.87,2.67a12.74,12.74,0,0,0-.28,2.05,1,1,0,0,0,1,1.11,1.48,1.48,0,0,0,1.06-.5c.32-.35.51-.89.88-2.66a14.22,14.22,0,0,0,.27-2.06A1,1,0,0,0,120.68,39.48Z"/><path class="cls-13" d="M131.24,47.86h-1.89l-1.19-10.43h2.4l.56,6,2.84-6h2.59Z"/><path class="cls-14" d="M140.67,47.86h-2.43l2.1-10.43h2.43Z"/><path class="cls-15" d="M153.86,39.57h-4.29l-.4,2h3.71l-.42,2.14h-3.71l-.41,2h4.38l-.42,2.14h-6.83l2.09-10.43h6.73Z"/></g></svg>