<svg xmlns="http://www.w3.org/2000/svg" viewBox="0 0 961.17 240.89"><defs><style>.a{fill:#fff;}.a,.b,.c{opacity:0.7;}.b,.c{fill:none;stroke:#fff;stroke-miterlimit:10;}.b{stroke-width:0.25px;}</style></defs><circle class="a" cx="23.44" cy="85.64" r="3.14"/><circle class="a" cx="181.86" cy="85.64" r="3.14"/><circle class="a" cx="224.68" cy="3.14" r="3.14"/><circle class="a" cx="287.73" cy="18.38" r="3.14"/><circle class="a" cx="330.17" cy="88.78" r="3.14"/><circle class="a" cx="454.6" cy="88.78" r="3.14"/><circle class="a" cx="141.47" cy="167.55" r="3.14"/><circle class="a" cx="630.99" cy="85.64" r="3.14"/><circle class="a" cx="789.42" cy="85.64" r="3.14"/><circle class="a" cx="832.24" cy="18.38" r="3.14"/><circle class="a" cx="908.39" cy="88.78" r="3.14"/><circle class="a" cx="749.02" cy="167.55" r="3.14"/><polyline class="b" points="390.86 112.9 390.86 234.41 394.21 240.68"/><polyline class="b" points="379.49 112.9 379.49 234.41 382.84 240.68"/><polyline class="b" points="367.36 112.9 367.36 234.41 370.71 240.68"/><polyline class="c" points="141.47 164.4 141.47 170.69 141.47 240.68"/><line class="b" x1="122.84" y1="240.68" x2="122.84" y2="164.4"/><line class="b" x1="104.21" y1="240.68" x2="104.21" y2="164.4"/><polyline class="b" points="475.82 88.78 475.82 216.08 486.8 240.68"/><polyline class="c" points="454.61 88.78 454.61 91.92 454.61 216.08 465.59 240.68"/><polyline class="b" points="433.39 88.78 433.39 216.08 444.37 240.68"/><polyline class="b" points="44.65 88.78 44.65 216.08 55.63 240.68"/><polyline class="c" points="23.44 88.78 23.44 216.08 34.42 240.68"/><polyline class="b" points="2.22 88.78 2.22 216.08 13.2 240.68"/><polyline class="c" points="330.17 88.78 330.17 91.92 330.17 216.08 341.15 240.68"/><polyline class="b" points="308.95 88.78 308.95 216.08 319.93 240.68"/><polyline class="c" points="287.74 18.38 287.74 21.52 287.74 216.08 298.72 240.68"/><polyline class="c" points="224.68 3.14 224.68 6.28 224.68 125.1 250.01 181.86 250.01 240.68"/><polyline class="c" points="181.86 82.49 181.86 88.78 181.86 125.1 207.19 181.86 207.19 240.68"/><polyline class="b" points="957.71 112.9 957.71 234.41 961.06 240.68"/><polyline class="b" points="945.58 112.9 945.58 234.41 948.93 240.68"/><polyline class="c" points="749.02 164.4 749.02 170.69 749.02 240.68"/><line class="b" x1="730.39" y1="240.68" x2="730.39" y2="164.4"/><line class="b" x1="711.76" y1="240.68" x2="711.76" y2="164.4"/><polyline class="b" points="537.71 88.78 537.71 216.08 526.73 240.68"/><polyline class="b" points="558.92 88.78 558.92 216.08 547.94 240.68"/><polyline class="b" points="580.14 88.78 580.14 216.08 569.16 240.68"/><polyline class="b" points="652.2 88.78 652.2 216.08 663.18 240.68"/><polyline class="c" points="630.99 88.78 630.99 216.08 641.97 240.68"/><polyline class="b" points="609.77 88.78 609.77 216.08 620.75 240.68"/><polyline class="c" points="908.39 88.78 908.39 91.92 908.39 216.08 919.37 240.68"/><polyline class="b" points="887.17 88.78 887.17 216.08 898.15 240.68"/><polyline class="c" points="832.24 21.52 832.24 125.1 857.56 181.86 857.56 240.68"/><polyline class="c" points="789.42 82.49 789.42 88.78 789.42 125.1 814.74 181.86 814.74 240.68"/><circle class="b" cx="2.22" cy="86.69" r="2.1"/><circle class="b" cx="44.65" cy="86.69" r="2.1"/><circle class="b" cx="104.21" cy="162.31" r="2.1"/><circle class="b" cx="122.84" cy="162.31" r="2.1"/><circle class="b" cx="308.95" cy="86.69" r="2.1"/><circle class="b" cx="367.36" cy="110.81" r="2.1"/><circle class="b" cx="379.49" cy="110.81" r="2.1"/><circle class="b" cx="390.83" cy="110.81" r="2.1"/><circle class="b" cx="433.39" cy="86.69" r="2.1"/><circle class="b" cx="475.82" cy="86.69" r="2.1"/><circle class="b" cx="537.71" cy="86.69" r="2.1"/><circle class="b" cx="558.92" cy="86.69" r="2.1"/><circle class="b" cx="580.14" cy="86.69" r="2.1"/><circle class="b" cx="609.77" cy="86.69" r="2.1"/><circle class="b" cx="652.2" cy="86.69" r="2.1"/><circle class="b" cx="711.76" cy="162.31" r="2.1"/><circle class="b" cx="730.39" cy="162.31" r="2.1"/><circle class="b" cx="887.17" cy="86.69" r="2.1"/><circle class="b" cx="945.58" cy="110.81" r="2.1"/><circle class="b" cx="957.71" cy="110.81" r="2.1"/></svg>